# https://github.com/mikedh/trimesh
v -0.01564058 -0.01864503 0.01000000
v -0.01464503 -0.01964058 0.01000000
v -0.01627976 -0.01739058 0.01000000
v -0.01650000 -0.01600000 0.01000000
v -0.01339058 -0.02027975 0.01000000
v -0.01200000 -0.02050000 0.01000000
v -0.00226274 -0.01416274 0.01000000
v -0.00253873 -0.01384804 0.01000000
v -0.00317262 -0.01231768 0.01000000
v -0.00320000 -0.01190000 0.01000000
v -0.00317262 -0.01148232 0.01000000
v -0.00295641 -0.01312459 0.01000000
v -0.00277128 -0.01350000 0.01000000
v -0.00309096 -0.01272822 0.01000000
v -0.00122459 -0.01485641 0.01000000
v -0.00194804 -0.01443873 0.01000000
v -0.00160000 -0.01467128 0.01000000
v -0.00082822 -0.01499096 0.01000000
v -0.00041768 -0.01507262 0.01000000
v -0.00765000 -0.00460000 0.01000000
v -0.00505000 -0.00460000 0.01000000
v -0.00309096 -0.01107178 0.01000000
v -0.00295641 -0.01067541 0.01000000
v -0.00277128 -0.01030000 0.01000000
v -0.00253873 -0.00995196 0.01000000
v -0.00226274 -0.00963726 0.01000000
v -0.00194804 -0.00936127 0.01000000
v -0.00160000 -0.00912872 0.01000000
v -0.00122459 -0.00894359 0.01000000
v -0.00082822 -0.00880904 0.01000000
v -0.00041768 -0.00872738 0.01000000
v -0.01564058 -0.01864503 0.01420000
v -0.01464503 -0.01964058 0.01420000
v -0.01627976 -0.01739058 0.01420000
v -0.01650000 -0.01600000 0.01420000
v -0.01339058 -0.02027975 0.01420000
v -0.01200000 -0.02050000 0.01420000
v -0.00865000 -0.00560000 0.01420000
v -0.00226274 -0.01416274 0.01420000
v -0.00253873 -0.01384804 0.01420000
v -0.00317262 -0.01231768 0.01420000
v -0.00320000 -0.01190000 0.01420000
v -0.00317262 -0.01148232 0.01420000
v -0.00295641 -0.01312459 0.01420000
v -0.00277128 -0.01350000 0.01420000
v -0.00309096 -0.01272822 0.01420000
v -0.00122459 -0.01485641 0.01420000
v -0.00194804 -0.01443873 0.01420000
v -0.00160000 -0.01467128 0.01420000
v -0.00082822 -0.01499096 0.01420000
v -0.00041768 -0.01507262 0.01420000
v -0.00765000 -0.00460000 0.01320000
v -0.00505000 -0.00460000 0.01320000
v -0.00309096 -0.01107178 0.01420000
v -0.00295641 -0.01067541 0.01420000
v -0.00277128 -0.01030000 0.01420000
v -0.00253873 -0.00995196 0.01420000
v -0.00226274 -0.00963726 0.01420000
v -0.00194804 -0.00936127 0.01420000
v -0.00160000 -0.00912872 0.01420000
v -0.00122459 -0.00894359 0.01420000
v -0.00082822 -0.00880904 0.01420000
v -0.00041768 -0.00872738 0.01420000
v -0.00405000 -0.00560000 0.01420000
v -0.01650000 0.01200000 0.01000000
v -0.01627976 0.01339058 0.01000000
v -0.01564058 0.01464503 0.01000000
v -0.01464503 0.01564058 0.01000000
v -0.01339058 0.01627976 0.01000000
v -0.01200000 0.01650000 0.01000000
v -0.00765000 0.00460000 0.01000000
v -0.00505000 0.00460000 0.01000000
v -0.00865000 0.00560000 0.01420000
v -0.01650000 0.01200000 0.01420000
v -0.01627976 0.01339058 0.01420000
v -0.01564058 0.01464503 0.01420000
v -0.01464503 0.01564058 0.01420000
v -0.01339058 0.01627976 0.01420000
v -0.01200000 0.01650000 0.01420000
v -0.00765000 0.00460000 0.01320000
v -0.00505000 0.00460000 0.01320000
v -0.00405000 0.00560000 0.01420000
v -0.00000000 -0.01510000 0.01000000
v 0.00041768 -0.01507262 0.01000000
v 0.00082822 -0.01499096 0.01000000
v 0.00122459 -0.01485641 0.01000000
v 0.00160000 -0.01467128 0.01000000
v 0.00194804 -0.01443873 0.01000000
v 0.00226274 -0.01416274 0.01000000
v 0.00253873 -0.01384804 0.01000000
v 0.00277128 -0.01350000 0.01000000
v 0.00295641 -0.01312459 0.01000000
v 0.00309096 -0.01272822 0.01000000
v 0.00317262 -0.01231768 0.01000000
v 0.00320000 -0.01190000 0.01000000
v 0.00317262 -0.01148232 0.01000000
v 0.00122459 -0.00894359 0.01000000
v 0.00160000 -0.00912872 0.01000000
v 0.00194804 -0.00936127 0.01000000
v 0.00000000 -0.00870000 0.01000000
v 0.00041768 -0.00872738 0.01000000
v 0.00082822 -0.00880904 0.01000000
v 0.00309096 -0.01107178 0.01000000
v 0.00295641 -0.01067541 0.01000000
v 0.00277128 -0.01030000 0.01000000
v 0.00226274 -0.00963726 0.01000000
v 0.00253873 -0.00995196 0.01000000
v 0.00505000 -0.00380000 0.01000000
v 0.00765000 -0.00380000 0.01000000
v 0.01200000 -0.02050000 0.01000000
v 0.01339058 -0.02027975 0.01000000
v 0.01464503 -0.01964058 0.01000000
v 0.01564058 -0.01864503 0.01000000
v 0.01627976 -0.01739058 0.01000000
v 0.01650000 -0.01600000 0.01000000
v -0.00000000 -0.01510000 0.01420000
v 0.00041768 -0.01507262 0.01420000
v 0.00082822 -0.01499096 0.01420000
v 0.00122459 -0.01485641 0.01420000
v 0.00160000 -0.01467128 0.01420000
v 0.00194804 -0.01443873 0.01420000
v 0.00226274 -0.01416274 0.01420000
v 0.00253873 -0.01384804 0.01420000
v 0.00277128 -0.01350000 0.01420000
v 0.00295641 -0.01312459 0.01420000
v 0.00309096 -0.01272822 0.01420000
v 0.00317262 -0.01231768 0.01420000
v 0.00320000 -0.01190000 0.01420000
v 0.00317262 -0.01148232 0.01420000
v 0.00122459 -0.00894359 0.01420000
v 0.00160000 -0.00912872 0.01420000
v 0.00194804 -0.00936127 0.01420000
v 0.00000000 -0.00870000 0.01420000
v 0.00041768 -0.00872738 0.01420000
v 0.00082822 -0.00880904 0.01420000
v 0.00309096 -0.01107178 0.01420000
v 0.00295641 -0.01067541 0.01420000
v 0.00277128 -0.01030000 0.01420000
v 0.00226274 -0.00963726 0.01420000
v 0.00253873 -0.00995196 0.01420000
v 0.00405000 -0.00480000 0.01420000
v 0.00505000 -0.00380000 0.01320000
v 0.00765000 -0.00380000 0.01320000
v 0.01200000 -0.02050000 0.01420000
v 0.01339058 -0.02027975 0.01420000
v 0.01464503 -0.01964058 0.01420000
v 0.01564058 -0.01864503 0.01420000
v 0.01627976 -0.01739058 0.01420000
v 0.01650000 -0.01600000 0.01420000
v 0.00865000 -0.00480000 0.01420000
v 0.00505000 0.00380000 0.01000000
v 0.00765000 0.00380000 0.01000000
v 0.01200000 0.01650000 0.01000000
v 0.01339058 0.01627976 0.01000000
v 0.01650000 0.01200000 0.01000000
v 0.01627976 0.01339058 0.01000000
v 0.01464503 0.01564058 0.01000000
v 0.01564058 0.01464503 0.01000000
v 0.00405000 0.00480000 0.01420000
v 0.00505000 0.00380000 0.01320000
v 0.00765000 0.00380000 0.01320000
v 0.00865000 0.00480000 0.01420000
v 0.01200000 0.01650000 0.01420000
v 0.01339058 0.01627976 0.01420000
v 0.01650000 0.01200000 0.01420000
v 0.01627976 0.01339058 0.01420000
v 0.01464503 0.01564058 0.01420000
v 0.01564058 0.01464503 0.01420000
f 1 2 32
f 1 34 3
f 3 34 4
f 2 5 33
f 5 6 36
f 4 65 20
f 4 20 23
f 4 35 65
f 3 4 111
f 1 111 2
f 1 3 111
f 2 111 5
f 4 13 8
f 4 12 13
f 4 14 12
f 4 9 14
f 4 7 16
f 4 16 17
f 4 17 15
f 4 8 7
f 4 10 9
f 4 11 10
f 4 22 11
f 4 23 22
f 5 111 6
f 4 15 111
f 23 20 21
f 23 21 24
f 24 21 25
f 25 21 26
f 26 21 27
f 27 21 28
f 28 21 29
f 29 21 30
f 30 21 31
f 31 21 72
f 72 97 102
f 72 98 97
f 72 107 106
f 72 99 98
f 72 106 99
f 72 100 31
f 72 101 100
f 72 102 101
f 1 32 34
f 2 33 32
f 4 34 35
f 5 36 33
f 6 37 36
f 32 33 34
f 33 36 34
f 34 36 37
f 34 74 35
f 34 64 38
f 34 38 73
f 6 144 37
f 34 37 144
f 34 46 41
f 34 45 44
f 34 44 46
f 34 41 42
f 34 42 43
f 34 48 39
f 34 39 40
f 34 40 45
f 34 49 48
f 34 47 49
f 34 43 54
f 34 54 55
f 34 55 56
f 34 56 57
f 34 57 58
f 34 58 59
f 34 59 60
f 34 50 47
f 34 51 50
f 34 116 51
f 34 117 116
f 34 141 64
f 34 60 141
f 65 66 20
f 66 71 20
f 66 67 71
f 67 68 71
f 69 72 71
f 68 69 71
f 65 75 66
f 66 75 67
f 67 76 68
f 68 78 69
f 69 78 70
f 69 111 72
f 69 70 111
f 70 151 108
f 35 74 65
f 34 75 74
f 34 76 75
f 34 77 76
f 34 78 77
f 34 79 78
f 34 73 79
f 65 74 75
f 67 75 76
f 68 76 77
f 68 77 78
f 70 78 79
f 82 64 141
f 70 79 163
f 79 73 82
f 79 82 163
f 111 15 18
f 111 18 19
f 6 111 110
f 111 19 83
f 111 83 84
f 111 84 85
f 111 85 86
f 111 86 87
f 111 87 88
f 111 88 89
f 111 89 90
f 111 90 91
f 111 91 92
f 111 92 93
f 111 93 94
f 111 94 95
f 111 95 96
f 111 96 103
f 111 104 105
f 111 103 104
f 111 105 107
f 6 110 144
f 111 107 72
f 70 108 111
f 111 113 112
f 111 114 113
f 111 115 114
f 110 111 145
f 111 112 145
f 112 113 147
f 113 114 148
f 114 115 148
f 111 108 109
f 111 109 152
f 111 155 115
f 34 149 117
f 34 144 145
f 34 145 146
f 34 146 147
f 34 147 148
f 34 148 149
f 149 118 117
f 149 119 118
f 149 120 119
f 149 121 120
f 149 122 121
f 149 123 122
f 149 124 123
f 149 125 124
f 149 126 125
f 149 127 126
f 149 128 127
f 149 129 128
f 149 136 129
f 149 137 136
f 141 60 61
f 141 61 62
f 141 62 63
f 133 141 63
f 134 141 133
f 135 141 134
f 130 141 135
f 139 141 132
f 140 141 139
f 131 141 130
f 132 141 131
f 137 141 138
f 138 141 140
f 137 150 141
f 110 145 144
f 112 146 145
f 112 147 146
f 113 148 147
f 115 149 148
f 115 165 149
f 149 150 137
f 149 165 150
f 70 153 151
f 153 152 151
f 70 163 153
f 111 152 153
f 111 156 155
f 111 158 156
f 111 153 154
f 111 154 157
f 111 157 158
f 115 155 165
f 153 164 154
f 154 164 157
f 155 156 166
f 156 158 166
f 157 167 158
f 82 141 159
f 164 82 159
f 163 82 164
f 165 162 150
f 153 163 164
f 157 164 167
f 155 166 165
f 158 167 168
f 158 168 166
f 164 159 162
f 164 162 167
f 167 162 168
f 165 166 162
f 166 168 162
f 142 109 108
f 142 143 109
f 160 108 151
f 143 152 109
f 161 151 152
f 142 108 160
f 143 161 152
f 160 151 161
f 142 141 143
f 143 141 150
f 142 160 141
f 143 150 161
f 160 159 141
f 160 161 162
f 160 162 159
f 161 150 162
f 52 21 20
f 52 53 21
f 80 20 71
f 53 72 21
f 81 71 72
f 52 20 80
f 53 81 72
f 80 71 81
f 52 38 53
f 53 38 64
f 52 73 38
f 52 80 73
f 53 82 81
f 53 64 82
f 80 81 82
f 80 82 73
f 8 13 45
f 16 7 39
f 7 8 40
f 14 9 41
f 9 10 42
f 10 11 43
f 13 12 44
f 12 14 46
f 15 17 49
f 18 15 47
f 17 16 48
f 19 18 50
f 19 51 83
f 11 22 54
f 22 23 55
f 23 24 56
f 24 25 57
f 25 26 58
f 26 27 59
f 27 28 60
f 28 29 61
f 29 30 62
f 30 31 63
f 31 100 133
f 8 45 40
f 7 40 39
f 14 41 46
f 9 42 41
f 10 43 42
f 11 54 43
f 12 46 44
f 13 44 45
f 15 49 47
f 16 39 48
f 17 48 49
f 18 47 50
f 19 50 51
f 116 83 51
f 22 55 54
f 23 56 55
f 24 57 56
f 25 58 57
f 26 59 58
f 27 60 59
f 28 61 60
f 29 62 61
f 30 63 62
f 31 133 63
f 83 116 84
f 85 84 117
f 86 85 118
f 87 86 119
f 88 87 120
f 89 88 121
f 90 89 122
f 91 90 123
f 92 91 124
f 93 92 125
f 94 93 126
f 95 94 127
f 96 95 128
f 103 96 129
f 97 98 131
f 98 99 132
f 100 101 134
f 101 102 135
f 102 97 130
f 104 103 136
f 107 105 138
f 105 104 137
f 99 106 139
f 106 107 140
f 84 116 117
f 85 117 118
f 86 118 119
f 87 119 120
f 88 120 121
f 89 121 122
f 90 122 123
f 91 123 124
f 92 124 125
f 93 125 126
f 94 126 127
f 95 127 128
f 96 128 129
f 97 131 130
f 98 132 131
f 99 139 132
f 100 134 133
f 101 135 134
f 102 130 135
f 104 136 137
f 105 137 138
f 106 140 139
f 107 138 140
f 103 129 136

