# https://github.com/mikedh/trimesh
v -0.04800000 -0.02800000 -0.00580000
v -0.04800000 -0.02800000 -0.00254436
v -0.04800000 -0.02790557 -0.00252169
v -0.04800000 -0.02767362 -0.00242561
v -0.04800000 -0.02745954 -0.00229443
v -0.04800000 -0.02726863 -0.00213137
v -0.04800000 -0.02710557 -0.00194046
v -0.04800000 -0.02697439 -0.00172638
v -0.04800000 -0.02687831 -0.00149443
v -0.04800000 -0.02681970 -0.00125030
v -0.04800000 -0.02680000 -0.00100000
v -0.04800000 -0.02681970 -0.00074970
v -0.04800000 -0.02687831 -0.00050557
v -0.04800000 -0.02697439 -0.00027362
v -0.04800000 -0.02710557 -0.00005954
v -0.04800000 -0.02726863 0.00013137
v -0.04800000 -0.02745954 0.00029443
v -0.04800000 -0.02790557 0.00052169
v -0.04800000 -0.02767362 0.00042561
v -0.04800000 -0.02800000 0.00054436
v -0.04800000 -0.02800000 0.00345564
v -0.04800000 -0.02790557 0.00347831
v -0.04800000 -0.02767362 0.00357439
v -0.04800000 -0.02745954 0.00370557
v -0.04800000 -0.02726863 0.00386863
v -0.04800000 -0.02710557 0.00405954
v -0.04800000 -0.02697439 0.00427362
v -0.04800000 -0.02687831 0.00450557
v -0.00226274 -0.01416274 -0.00580000
v -0.00194804 -0.01443873 -0.00580000
v -0.00160000 -0.01467128 -0.00580000
v -0.00082822 -0.01499096 -0.00580000
v -0.00041768 -0.01507262 -0.00580000
v -0.00122459 -0.01485641 -0.00580000
v -0.00309096 -0.01272822 -0.00580000
v -0.00317262 -0.01231768 -0.00580000
v -0.00320000 -0.01190000 -0.00580000
v -0.00317262 -0.01148232 -0.00580000
v -0.00309096 -0.01107178 -0.00580000
v -0.00253873 -0.01384804 -0.00580000
v -0.00277128 -0.01350000 -0.00580000
v -0.00295641 -0.01312459 -0.00580000
v -0.00295641 -0.01067541 -0.00580000
v -0.00277128 -0.01030000 -0.00580000
v -0.00253873 -0.00995196 -0.00580000
v -0.00226274 -0.00963726 -0.00580000
v -0.00194804 -0.00936127 -0.00580000
v -0.00160000 -0.00912872 -0.00580000
v -0.00122459 -0.00894359 -0.00580000
v -0.00082822 -0.00880904 -0.00580000
v -0.00041768 -0.00872738 -0.00580000
v -0.00765000 -0.00460000 -0.00580000
v -0.00505000 -0.00460000 -0.00580000
v -0.04800000 -0.02681970 0.00474971
v -0.04800000 -0.02680000 0.00500000
v -0.04800000 -0.02681970 0.00525030
v -0.04800000 -0.02687831 0.00549443
v -0.04800000 -0.02697439 0.00572638
v -0.04800000 -0.02726863 0.00613137
v -0.04800000 -0.02800000 0.00654436
v -0.04800000 -0.02790557 0.00652169
v -0.04800000 -0.02767362 0.00642561
v -0.04800000 -0.02745954 0.00629443
v -0.04800000 -0.02710557 0.00594046
v -0.04800000 -0.02800000 0.00900000
v -0.04800000 -0.02798150 0.00940045
v -0.04800000 -0.02794627 0.00980114
v -0.04800000 -0.02787311 0.01020221
v -0.04800000 -0.02778317 0.01059843
v -0.04800000 -0.02764971 0.01100484
v -0.04800000 -0.02749655 0.01140581
v -0.04800000 -0.02730856 0.01178528
v -0.04800000 -0.02710390 0.01215439
v -0.04800000 -0.02690514 0.01244675
v -0.04800000 -0.02669671 0.01273375
v -0.04800000 -0.02646097 0.01300501
v -0.04800000 -0.02621744 0.01326769
v -0.04800000 -0.02596530 0.01349632
v -0.04800000 -0.02570606 0.01371860
v -0.04800000 -0.02543233 0.01391524
v -0.04800000 -0.02515439 0.01410391
v -0.04800000 -0.02479395 0.01430979
v -0.04800000 -0.02442013 0.01449026
v -0.04800000 -0.02403473 0.01464445
v -0.04800000 -0.02363960 0.01477163
v -0.04800000 -0.02323662 0.01487118
v -0.04800000 -0.02282771 0.01494263
v -0.04800000 -0.02241485 0.01498564
v -0.04800000 -0.02200000 0.01500000
v -0.04134046 -0.00619443 0.01050000
v -0.04089443 -0.00642169 0.01050000
v -0.04169443 -0.00584046 0.01050000
v -0.04192169 -0.00539443 0.01050000
v -0.04040000 -0.00650000 0.01050000
v -0.04200000 -0.00490000 0.01050000
v -0.04134046 -0.00619443 0.01500000
v -0.04089443 -0.00642169 0.01500000
v -0.04169443 -0.00584046 0.01500000
v -0.04192169 -0.00539443 0.01500000
v -0.04040000 -0.00650000 0.01500000
v -0.04200000 -0.00490000 0.01500000
v -0.02460000 -0.00650000 0.01050000
v -0.02410557 -0.00642169 0.01050000
v -0.02460000 -0.00650000 0.01500000
v -0.02410557 -0.00642169 0.01500000
v -0.01365496 -0.02109344 0.01500000
v -0.01675528 -0.01754509 0.01000000
v -0.01604508 -0.01893893 0.01000000
v -0.01354508 -0.02075528 0.01000000
v -0.01493893 -0.02004508 0.01000000
v -0.01700000 -0.01600000 0.01000000
v -0.01514792 -0.02033274 0.01500000
v -0.01675528 -0.01754509 0.01420000
v -0.01604508 -0.01893893 0.01420000
v -0.01709344 -0.01765496 0.01500000
v -0.01633273 -0.01914792 0.01500000
v -0.01354508 -0.02075528 0.01420000
v -0.01493893 -0.02004508 0.01420000
v -0.01700000 -0.01600000 0.01420000
v -0.01735556 -0.01600000 0.01500000
v -0.01200000 -0.02135555 0.01500000
v -0.01200000 -0.02100000 0.01000000
v -0.00226274 -0.01416274 0.01000000
v -0.00194804 -0.01443873 0.01000000
v -0.00160000 -0.01467128 0.01000000
v -0.00082822 -0.01499096 0.01000000
v -0.00041768 -0.01507262 0.01000000
v -0.00122459 -0.01485641 0.01000000
v -0.01200000 -0.02100000 0.01420000
v -0.02365954 -0.00619443 0.01050000
v -0.02330557 -0.00584046 0.01050000
v -0.02307831 -0.00539443 0.01050000
v -0.02300000 -0.00490000 0.01050000
v -0.02365954 -0.00619443 0.01500000
v -0.02330557 -0.00584046 0.01500000
v -0.02307831 -0.00539443 0.01500000
v -0.02300000 -0.00490000 0.01500000
v -0.00309096 -0.01272822 0.01000000
v -0.00317262 -0.01231768 0.01000000
v -0.00320000 -0.01190000 0.01000000
v -0.00317262 -0.01148232 0.01000000
v -0.00309096 -0.01107178 0.01000000
v -0.00253873 -0.01384804 0.01000000
v -0.00277128 -0.01350000 0.01000000
v -0.00295641 -0.01312459 0.01000000
v -0.00295641 -0.01067541 0.01000000
v -0.00277128 -0.01030000 0.01000000
v -0.00253873 -0.00995196 0.01000000
v -0.00226274 -0.00963726 0.01000000
v -0.00194804 -0.00936127 0.01000000
v -0.00160000 -0.00912872 0.01000000
v -0.00122459 -0.00894359 0.01000000
v -0.00082822 -0.00880904 0.01000000
v -0.00041768 -0.00872738 0.01000000
v -0.00765000 -0.00460000 0.01000000
v -0.00505000 -0.00460000 0.01000000
v -0.04800000 0.02800000 -0.00580000
v -0.04800000 0.02710557 -0.00194046
v -0.04800000 0.02745954 -0.00229443
v -0.04800000 0.02767362 -0.00242561
v -0.04800000 0.02790557 -0.00252169
v -0.04800000 0.02800000 -0.00254436
v -0.04800000 0.02726863 -0.00213137
v -0.04800000 0.02697439 -0.00172638
v -0.04800000 0.02687831 -0.00149443
v -0.04800000 0.02681970 -0.00125030
v -0.04800000 0.02680000 -0.00100000
v -0.04800000 0.02681970 -0.00074970
v -0.04800000 0.02687831 -0.00050557
v -0.04800000 0.02697439 -0.00027362
v -0.04800000 0.02710557 -0.00005954
v -0.04800000 0.02726863 0.00013137
v -0.04800000 0.02745954 0.00029443
v -0.04800000 0.02767362 0.00042561
v -0.04800000 0.02790557 0.00052169
v -0.04800000 0.02800000 0.00054436
v -0.04800000 0.02800000 0.00345564
v -0.04800000 0.02767362 0.00357439
v -0.04800000 0.02790557 0.00347831
v -0.04800000 0.02745954 0.00370557
v -0.04800000 0.02726863 0.00386863
v -0.04800000 0.02710557 0.00405954
v -0.04800000 0.02697439 0.00427362
v -0.04800000 0.02687831 0.00450557
v -0.00765000 0.00460000 -0.00580000
v -0.00505000 0.00460000 -0.00580000
v -0.04200000 0.00490000 0.01050000
v -0.04192169 0.00539443 0.01050000
v -0.04169443 0.00584046 0.01050000
v -0.04134046 0.00619443 0.01050000
v -0.04089443 0.00642169 0.01050000
v -0.04040000 0.00650000 0.01050000
v -0.04200000 0.00490000 0.01500000
v -0.04192169 0.00539443 0.01500000
v -0.04169443 0.00584046 0.01500000
v -0.04134046 0.00619443 0.01500000
v -0.04089443 0.00642169 0.01500000
v -0.04040000 0.00650000 0.01500000
v -0.02460000 0.00650000 0.01050000
v -0.02410557 0.00642169 0.01050000
v -0.02460000 0.00650000 0.01500000
v -0.02410557 0.00642169 0.01500000
v -0.04800000 0.02681970 0.00474971
v -0.04800000 0.02680000 0.00500000
v -0.04800000 0.02681970 0.00525030
v -0.04800000 0.02687831 0.00549443
v -0.04800000 0.02697439 0.00572638
v -0.04800000 0.02710557 0.00594046
v -0.04800000 0.02726863 0.00613137
v -0.04800000 0.02745954 0.00629443
v -0.04800000 0.02767362 0.00642561
v -0.04800000 0.02790557 0.00652169
v -0.04800000 0.02800000 0.00654436
v -0.04800000 0.02800000 0.00900000
v -0.04800000 0.02798150 0.00940045
v -0.04800000 0.02794627 0.00980114
v -0.04800000 0.02787311 0.01020221
v -0.04800000 0.02778317 0.01059843
v -0.04800000 0.02764971 0.01100484
v -0.04800000 0.02749655 0.01140581
v -0.04800000 0.02710390 0.01215439
v -0.04800000 0.02730856 0.01178528
v -0.04800000 0.02200000 0.01500000
v -0.04800000 0.02241485 0.01498564
v -0.04800000 0.02282771 0.01494263
v -0.04800000 0.02323662 0.01487118
v -0.04800000 0.02403473 0.01464445
v -0.04800000 0.02442013 0.01449026
v -0.04800000 0.02363960 0.01477163
v -0.04800000 0.02621744 0.01326769
v -0.04800000 0.02596530 0.01349632
v -0.04800000 0.02690514 0.01244675
v -0.04800000 0.02646097 0.01300501
v -0.04800000 0.02669671 0.01273375
v -0.04800000 0.02479395 0.01430979
v -0.04800000 0.02515439 0.01410391
v -0.04800000 0.02570606 0.01371860
v -0.04800000 0.02543233 0.01391524
v -0.02300000 0.00490000 0.01050000
v -0.02330557 0.00584046 0.01050000
v -0.02307831 0.00539443 0.01050000
v -0.02365954 0.00619443 0.01050000
v -0.02300000 0.00490000 0.01500000
v -0.02330557 0.00584046 0.01500000
v -0.02307831 0.00539443 0.01500000
v -0.02365954 0.00619443 0.01500000
v -0.01700000 0.01200000 0.01000000
v -0.01675528 0.01354508 0.01000000
v -0.01700000 0.01200000 0.01420000
v -0.01735556 0.01200000 0.01500000
v -0.01675528 0.01354508 0.01420000
v -0.01709344 0.01365496 0.01500000
v -0.00765000 0.00460000 0.01000000
v -0.00505000 0.00460000 0.01000000
v -0.01604508 0.01493893 0.01000000
v -0.01493893 0.01604508 0.01000000
v -0.01354508 0.01675528 0.01000000
v -0.01604508 0.01493893 0.01420000
v -0.01633273 0.01514792 0.01500000
v -0.01514792 0.01633273 0.01500000
v -0.01493893 0.01604508 0.01420000
v -0.01354508 0.01675528 0.01420000
v -0.01365496 0.01709344 0.01500000
v -0.01200000 0.01700000 0.01000000
v -0.01200000 0.01700000 0.01420000
v -0.01200000 0.01735556 0.01500000
v -0.00000000 -0.01510000 -0.00580000
v 0.00041768 -0.01507262 -0.00580000
v 0.00082822 -0.01499096 -0.00580000
v 0.00122459 -0.01485641 -0.00580000
v 0.00160000 -0.01467128 -0.00580000
v 0.00194804 -0.01443873 -0.00580000
v 0.00226274 -0.01416274 -0.00580000
v 0.00253873 -0.01384804 -0.00580000
v 0.00277128 -0.01350000 -0.00580000
v 0.00295641 -0.01312459 -0.00580000
v 0.00295641 -0.01067541 -0.00580000
v 0.00309096 -0.01272822 -0.00580000
v 0.00317262 -0.01231768 -0.00580000
v 0.00320000 -0.01190000 -0.00580000
v 0.00317262 -0.01148232 -0.00580000
v 0.00309096 -0.01107178 -0.00580000
v 0.00082822 -0.00880904 -0.00580000
v 0.00122459 -0.00894359 -0.00580000
v 0.00277128 -0.01030000 -0.00580000
v 0.00253873 -0.00995196 -0.00580000
v 0.00226274 -0.00963726 -0.00580000
v 0.00194804 -0.00936127 -0.00580000
v 0.00160000 -0.00912872 -0.00580000
v 0.00000000 -0.00870000 -0.00580000
v 0.00041768 -0.00872738 -0.00580000
v 0.00505000 -0.00380000 -0.00580000
v 0.00765000 -0.00380000 -0.00580000
v 0.04800000 -0.02800000 -0.00580000
v 0.04800000 -0.02800000 -0.00254436
v 0.04800000 -0.02790557 -0.00252169
v 0.04800000 -0.02767362 -0.00242561
v 0.04800000 -0.02745954 -0.00229443
v 0.04800000 -0.02726863 -0.00213137
v 0.04800000 -0.02710557 -0.00194046
v 0.04800000 -0.02697439 -0.00172638
v 0.04800000 -0.02687831 -0.00149443
v 0.04800000 -0.02681970 -0.00125030
v 0.04800000 -0.02680000 -0.00100000
v 0.04800000 -0.02681970 -0.00074970
v 0.04800000 -0.02687831 -0.00050557
v 0.04800000 -0.02697439 -0.00027362
v 0.04800000 -0.02710557 -0.00005954
v 0.04800000 -0.02726863 0.00013137
v 0.04800000 -0.02745954 0.00029443
v 0.04800000 -0.02790557 0.00052169
v 0.04800000 -0.02767362 0.00042561
v 0.04800000 -0.02800000 0.00054436
v 0.04800000 -0.02800000 0.00345564
v 0.04800000 -0.02790557 0.00347831
v 0.04800000 -0.02767362 0.00357439
v 0.04800000 -0.02745954 0.00370557
v 0.04800000 -0.02726863 0.00386863
v 0.04800000 -0.02710557 0.00405954
v 0.04800000 -0.02697439 0.00427362
v 0.04800000 -0.02687831 0.00450557
v -0.00000000 -0.01510000 0.01000000
v 0.00041768 -0.01507262 0.01000000
v 0.00082822 -0.01499096 0.01000000
v 0.00122459 -0.01485641 0.01000000
v 0.00160000 -0.01467128 0.01000000
v 0.00194804 -0.01443873 0.01000000
v 0.00226274 -0.01416274 0.01000000
v 0.01200000 -0.02135555 0.01500000
v 0.01365496 -0.02109344 0.01500000
v 0.01200000 -0.02100000 0.01000000
v 0.01354508 -0.02075528 0.01000000
v 0.01493893 -0.02004508 0.01000000
v 0.01604508 -0.01893893 0.01000000
v 0.01675528 -0.01754509 0.01000000
v 0.01700000 -0.01600000 0.01000000
v 0.01200000 -0.02100000 0.01420000
v 0.01354508 -0.02075528 0.01420000
v 0.01493893 -0.02004508 0.01420000
v 0.01514792 -0.02033274 0.01500000
v 0.01604508 -0.01893893 0.01420000
v 0.01675528 -0.01754509 0.01420000
v 0.01633273 -0.01914792 0.01500000
v 0.01709344 -0.01765496 0.01500000
v 0.01700000 -0.01600000 0.01420000
v 0.01735556 -0.01600000 0.01500000
v 0.02364886 -0.01623607 0.01250000
v 0.02219577 -0.01423607 0.01250000
v 0.02276393 -0.01535114 0.01250000
v 0.02364886 -0.01623607 0.01500000
v 0.02219577 -0.01423607 0.01500000
v 0.02276393 -0.01535114 0.01500000
v 0.00253873 -0.01384804 0.01000000
v 0.00277128 -0.01350000 0.01000000
v 0.00295641 -0.01312459 0.01000000
v 0.00295641 -0.01067541 0.01000000
v 0.00309096 -0.01272822 0.01000000
v 0.00317262 -0.01231768 0.01000000
v 0.00320000 -0.01190000 0.01000000
v 0.00317262 -0.01148232 0.01000000
v 0.00309096 -0.01107178 0.01000000
v 0.00082822 -0.00880904 0.01000000
v 0.00122459 -0.00894359 0.01000000
v 0.00277128 -0.01030000 0.01000000
v 0.00253873 -0.00995196 0.01000000
v 0.00226274 -0.00963726 0.01000000
v 0.00194804 -0.00936127 0.01000000
v 0.00160000 -0.00912872 0.01000000
v 0.00000000 -0.00870000 0.01000000
v 0.00041768 -0.00872738 0.01000000
v 0.00505000 -0.00380000 0.01000000
v 0.00765000 -0.00380000 0.01000000
v 0.02200000 -0.01300000 0.01250000
v 0.02200000 -0.01300000 0.01500000
v 0.04800000 -0.02681970 0.00474971
v 0.04800000 -0.02680000 0.00500000
v 0.04800000 -0.02681970 0.00525030
v 0.04800000 -0.02687831 0.00549443
v 0.04800000 -0.02697439 0.00572638
v 0.04800000 -0.02726863 0.00613137
v 0.04800000 -0.02800000 0.00654436
v 0.04800000 -0.02790557 0.00652169
v 0.04800000 -0.02767362 0.00642561
v 0.04800000 -0.02745954 0.00629443
v 0.04800000 -0.02710557 0.00594046
v 0.04800000 -0.02800000 0.00900000
v 0.04800000 -0.02798150 0.00940045
v 0.02476393 -0.01680423 0.01250000
v 0.02600000 -0.01700000 0.01250000
v 0.02476393 -0.01680423 0.01500000
v 0.02600000 -0.01700000 0.01500000
v 0.04800000 -0.02794627 0.00980114
v 0.04800000 -0.02787311 0.01020221
v 0.04800000 -0.02778317 0.01059843
v 0.04800000 -0.02764971 0.01100484
v 0.04800000 -0.02749655 0.01140581
v 0.04800000 -0.02730856 0.01178528
v 0.04800000 -0.02710390 0.01215439
v 0.04800000 -0.02690514 0.01244675
v 0.04800000 -0.02669671 0.01273375
v 0.04800000 -0.02646097 0.01300501
v 0.04800000 -0.02621744 0.01326769
v 0.04800000 -0.02596530 0.01349632
v 0.04800000 -0.02570606 0.01371860
v 0.04800000 -0.02543233 0.01391524
v 0.04800000 -0.02515439 0.01410391
v 0.04800000 -0.02479395 0.01430979
v 0.04800000 -0.02442013 0.01449026
v 0.04800000 -0.02403473 0.01464445
v 0.04800000 -0.02363960 0.01477163
v 0.04800000 -0.02323662 0.01487118
v 0.04800000 -0.02282771 0.01494263
v 0.04800000 -0.02241485 0.01498564
v 0.04800000 -0.02200000 0.01500000
v 0.03900000 -0.01700000 0.01250000
v 0.04023607 -0.01680423 0.01250000
v 0.04135114 -0.01623607 0.01250000
v 0.03900000 -0.01700000 0.01500000
v 0.04023607 -0.01680423 0.01500000
v 0.04135114 -0.01623607 0.01500000
v 0.04223607 -0.01535114 0.01250000
v 0.04280423 -0.01423607 0.01250000
v 0.04223607 -0.01535114 0.01500000
v 0.04280423 -0.01423607 0.01500000
v 0.02625000 -0.00900000 0.00800000
v 0.02625000 -0.00400000 0.00800000
v 0.03875000 -0.00900000 0.00800000
v 0.03875000 -0.00400000 0.00800000
v 0.02625000 -0.00900000 0.01250000
v 0.02625000 -0.00400000 0.01250000
v 0.03875000 -0.00900000 0.01250000
v 0.04300000 -0.01300000 0.01250000
v 0.04300000 -0.01300000 0.01500000
v 0.03875000 -0.00400000 0.01250000
v 0.00505000 0.00380000 -0.00580000
v 0.00765000 0.00380000 -0.00580000
v 0.04800000 0.02800000 -0.00580000
v 0.04800000 0.02710557 -0.00194046
v 0.04800000 0.02745954 -0.00229443
v 0.04800000 0.02767362 -0.00242561
v 0.04800000 0.02790557 -0.00252169
v 0.04800000 0.02800000 -0.00254436
v 0.04800000 0.02726863 -0.00213137
v 0.04800000 0.02697439 -0.00172638
v 0.04800000 0.02687831 -0.00149443
v 0.04800000 0.02681970 -0.00125030
v 0.04800000 0.02680000 -0.00100000
v 0.04800000 0.02681970 -0.00074970
v 0.04800000 0.02687831 -0.00050557
v 0.04800000 0.02697439 -0.00027362
v 0.04800000 0.02710557 -0.00005954
v 0.04800000 0.02726863 0.00013137
v 0.04800000 0.02745954 0.00029443
v 0.04800000 0.02767362 0.00042561
v 0.04800000 0.02790557 0.00052169
v 0.04800000 0.02800000 0.00054436
v 0.04800000 0.02800000 0.00345564
v 0.04800000 0.02767362 0.00357439
v 0.04800000 0.02790557 0.00347831
v 0.04800000 0.02745954 0.00370557
v 0.04800000 0.02726863 0.00386863
v 0.04800000 0.02710557 0.00405954
v 0.04800000 0.02697439 0.00427362
v 0.04800000 0.02687831 0.00450557
v 0.00505000 0.00380000 0.01000000
v 0.00765000 0.00380000 0.01000000
v 0.01700000 0.01200000 0.01000000
v 0.01675528 0.01354508 0.01000000
v 0.01700000 0.01200000 0.01420000
v 0.01735556 0.01200000 0.01500000
v 0.01675528 0.01354508 0.01420000
v 0.01709344 0.01365496 0.01500000
v 0.02200000 0.00900000 0.01250000
v 0.02219577 0.01023607 0.01250000
v 0.02200000 0.00900000 0.01500000
v 0.02219577 0.01023607 0.01500000
v 0.02276393 0.01135114 0.01250000
v 0.02364886 0.01223607 0.01250000
v 0.02276393 0.01135114 0.01500000
v 0.02364886 0.01223607 0.01500000
v 0.01200000 0.01700000 0.01000000
v 0.01493893 0.01604508 0.01000000
v 0.01354508 0.01675528 0.01000000
v 0.01604508 0.01493893 0.01000000
v 0.01200000 0.01700000 0.01420000
v 0.01493893 0.01604508 0.01420000
v 0.01354508 0.01675528 0.01420000
v 0.01200000 0.01735556 0.01500000
v 0.01365496 0.01709344 0.01500000
v 0.01604508 0.01493893 0.01420000
v 0.01633273 0.01514792 0.01500000
v 0.01514792 0.01633273 0.01500000
v 0.02625000 -0.00000000 0.00800000
v 0.02625000 0.00500000 0.00800000
v 0.03875000 -0.00000000 0.00800000
v 0.03875000 0.00500000 0.00800000
v 0.02625000 -0.00000000 0.01250000
v 0.02625000 0.00500000 0.01250000
v 0.02476393 0.01280423 0.01250000
v 0.02600000 0.01300000 0.01250000
v 0.02476393 0.01280423 0.01500000
v 0.02600000 0.01300000 0.01500000
v 0.03875000 -0.00000000 0.01250000
v 0.03875000 0.00500000 0.01250000
v 0.04135114 0.01223607 0.01250000
v 0.03900000 0.01300000 0.01250000
v 0.04023607 0.01280423 0.01250000
v 0.04135114 0.01223607 0.01500000
v 0.03900000 0.01300000 0.01500000
v 0.04023607 0.01280423 0.01500000
v 0.04300000 0.00900000 0.01250000
v 0.04280423 0.01023607 0.01250000
v 0.04300000 0.00900000 0.01500000
v 0.04280423 0.01023607 0.01500000
v 0.04223607 0.01135114 0.01250000
v 0.04223607 0.01135114 0.01500000
v 0.04800000 0.02681970 0.00474971
v 0.04800000 0.02680000 0.00500000
v 0.04800000 0.02681970 0.00525030
v 0.04800000 0.02687831 0.00549443
v 0.04800000 0.02697439 0.00572638
v 0.04800000 0.02710557 0.00594046
v 0.04800000 0.02726863 0.00613137
v 0.04800000 0.02745954 0.00629443
v 0.04800000 0.02767362 0.00642561
v 0.04800000 0.02790557 0.00652169
v 0.04800000 0.02800000 0.00654436
v 0.04800000 0.02800000 0.00900000
v 0.04800000 0.02798150 0.00940045
v 0.04800000 0.02794627 0.00980114
v 0.04800000 0.02787311 0.01020221
v 0.04800000 0.02778317 0.01059843
v 0.04800000 0.02764971 0.01100484
v 0.04800000 0.02749655 0.01140581
v 0.04800000 0.02710390 0.01215439
v 0.04800000 0.02730856 0.01178528
v 0.04800000 0.02200000 0.01500000
v 0.04800000 0.02241485 0.01498564
v 0.04800000 0.02282771 0.01494263
v 0.04800000 0.02323662 0.01487118
v 0.04800000 0.02403473 0.01464445
v 0.04800000 0.02442013 0.01449026
v 0.04800000 0.02363960 0.01477163
v 0.04800000 0.02621744 0.01326769
v 0.04800000 0.02596530 0.01349632
v 0.04800000 0.02690514 0.01244675
v 0.04800000 0.02646097 0.01300501
v 0.04800000 0.02669671 0.01273375
v 0.04800000 0.02479395 0.01430979
v 0.04800000 0.02515439 0.01410391
v 0.04800000 0.02570606 0.01371860
v 0.04800000 0.02543233 0.01391524
f 1 2 3
f 1 3 4
f 1 4 5
f 1 5 6
f 1 6 7
f 1 7 8
f 1 8 9
f 13 54 12
f 14 28 13
f 15 27 14
f 20 21 18
f 18 23 19
f 19 24 17
f 16 26 15
f 17 25 16
f 21 22 18
f 23 18 22
f 19 23 24
f 17 24 25
f 26 16 25
f 15 26 27
f 28 14 27
f 13 28 54
f 1 9 89
f 89 9 10
f 89 10 11
f 89 11 12
f 1 157 52
f 1 294 2
f 1 35 42
f 1 36 35
f 1 37 36
f 1 52 37
f 1 34 32
f 1 29 30
f 1 41 40
f 1 40 29
f 1 30 31
f 1 31 34
f 1 42 41
f 1 32 294
f 20 313 21
f 37 52 38
f 38 53 39
f 39 53 43
f 43 53 44
f 44 53 45
f 45 53 46
f 46 53 47
f 47 53 48
f 48 53 49
f 49 53 50
f 38 52 53
f 50 53 292
f 292 53 186
f 89 12 54
f 65 61 60
f 65 62 61
f 89 54 55
f 89 55 56
f 89 64 59
f 89 59 63
f 89 56 57
f 89 57 58
f 89 58 64
f 89 63 62
f 65 89 62
f 65 66 89
f 66 67 89
f 67 68 89
f 68 69 89
f 69 70 89
f 70 71 89
f 71 72 89
f 72 73 89
f 73 74 89
f 74 75 89
f 75 76 89
f 76 77 89
f 77 78 89
f 78 79 89
f 79 80 89
f 80 81 89
f 81 82 89
f 82 83 89
f 83 84 89
f 84 85 89
f 85 86 89
f 86 87 89
f 87 88 89
f 89 106 112
f 89 121 106
f 89 116 115
f 89 115 120
f 89 112 116
f 89 120 134
f 1 89 223
f 89 96 98
f 89 98 99
f 89 99 101
f 89 97 96
f 89 100 97
f 89 104 100
f 89 101 223
f 89 105 104
f 89 134 105
f 65 60 381
f 65 387 66
f 66 392 67
f 67 393 68
f 68 394 69
f 69 395 70
f 70 396 71
f 71 397 72
f 72 398 73
f 73 399 74
f 74 400 75
f 75 401 76
f 76 402 77
f 77 403 78
f 78 404 79
f 79 405 80
f 80 406 81
f 81 407 82
f 82 408 83
f 83 409 84
f 84 410 85
f 85 411 86
f 86 412 87
f 87 413 88
f 88 414 89
f 89 414 121
f 120 135 134
f 120 136 135
f 120 137 136
f 120 250 137
f 1 162 157
f 1 161 162
f 1 160 161
f 1 163 159
f 1 159 160
f 1 158 163
f 1 164 158
f 1 165 164
f 1 166 165
f 1 167 166
f 1 168 167
f 1 169 168
f 1 170 169
f 1 182 170
f 1 183 182
f 1 184 183
f 1 203 184
f 1 204 203
f 1 205 204
f 1 206 205
f 1 207 206
f 1 208 207
f 1 209 208
f 1 210 209
f 1 211 210
f 1 212 211
f 1 213 212
f 1 214 213
f 1 215 214
f 1 216 215
f 170 182 171
f 171 181 172
f 172 180 173
f 173 178 174
f 174 179 175
f 176 175 177
f 172 181 180
f 171 182 181
f 173 180 178
f 177 175 179
f 174 178 179
f 157 185 52
f 157 162 442
f 157 437 185
f 177 457 176
f 1 227 228
f 1 223 224
f 1 225 226
f 1 224 225
f 1 226 229
f 1 229 227
f 1 217 216
f 1 218 217
f 1 219 218
f 1 220 219
f 1 222 220
f 1 232 221
f 1 234 232
f 1 230 233
f 1 233 234
f 1 231 230
f 1 237 231
f 1 221 222
f 1 238 237
f 1 236 238
f 1 228 235
f 1 235 236
f 223 101 193
f 223 193 194
f 223 194 195
f 223 195 196
f 223 196 197
f 223 197 198
f 223 198 201
f 223 201 259
f 223 259 260
f 223 260 263
f 223 263 266
f 137 250 243
f 245 243 250
f 244 245 250
f 202 250 201
f 244 250 246
f 202 246 250
f 201 250 252
f 201 252 259
f 214 528 213
f 214 215 528
f 215 216 529
f 223 266 488
f 216 217 530
f 217 218 531
f 218 219 532
f 219 220 533
f 220 222 534
f 221 232 535
f 221 536 222
f 223 538 224
f 224 539 225
f 225 540 226
f 226 543 229
f 227 542 228
f 227 229 541
f 230 231 544
f 231 237 545
f 232 234 546
f 233 548 234
f 230 547 233
f 236 552 238
f 235 550 236
f 237 238 551
f 228 549 235
f 294 295 2
f 294 32 33
f 294 33 267
f 294 267 268
f 294 268 269
f 294 269 270
f 294 270 271
f 294 271 272
f 294 272 273
f 294 273 274
f 294 274 275
f 294 275 276
f 294 277 285
f 294 285 286
f 294 276 278
f 294 278 279
f 294 279 280
f 294 280 281
f 294 281 282
f 294 282 277
f 314 21 313
f 50 292 51
f 51 292 290
f 290 292 291
f 291 292 283
f 284 292 289
f 283 292 284
f 289 292 288
f 288 292 287
f 287 293 286
f 287 292 293
f 294 286 293
f 308 318 309
f 307 319 308
f 313 311 314
f 312 315 311
f 310 316 312
f 309 317 310
f 314 311 315
f 312 316 315
f 310 317 316
f 309 318 317
f 308 319 318
f 294 293 437
f 294 437 295
f 437 296 295
f 437 297 296
f 437 298 297
f 437 299 298
f 437 300 299
f 437 301 300
f 437 302 301
f 437 303 302
f 437 304 303
f 437 305 304
f 437 306 305
f 437 307 306
f 437 319 307
f 437 320 319
f 437 321 320
f 437 375 321
f 437 376 375
f 437 377 376
f 437 378 377
f 437 379 378
f 437 385 379
f 437 380 385
f 437 383 384
f 437 384 380
f 437 382 383
f 437 381 382
f 386 381 437
f 386 437 387
f 387 437 392
f 65 381 386
f 65 386 387
f 66 387 392
f 67 392 393
f 68 393 394
f 69 394 395
f 70 395 396
f 71 396 397
f 72 397 398
f 73 398 399
f 74 399 400
f 75 400 401
f 76 401 402
f 77 402 403
f 78 403 404
f 79 404 405
f 80 405 406
f 81 406 407
f 82 407 408
f 83 408 409
f 84 409 410
f 85 410 411
f 86 411 412
f 87 412 413
f 88 413 414
f 414 329 121
f 343 340 390
f 343 350 344
f 340 391 390
f 344 352 346
f 346 352 351
f 346 351 374
f 343 390 350
f 344 350 352
f 374 475 346
f 414 330 329
f 414 340 330
f 414 391 340
f 414 418 391
f 414 419 418
f 414 420 419
f 414 423 420
f 414 424 423
f 414 433 424
f 392 437 393
f 393 437 394
f 394 437 395
f 395 437 396
f 396 437 397
f 397 437 398
f 398 437 399
f 399 437 400
f 400 437 401
f 401 437 402
f 402 437 403
f 403 437 404
f 404 437 405
f 405 437 406
f 406 437 407
f 407 437 408
f 408 437 409
f 409 437 410
f 410 437 411
f 411 437 412
f 412 437 413
f 413 437 414
f 414 537 433
f 186 435 292
f 437 186 185
f 437 435 186
f 437 293 436
f 437 436 435
f 157 442 437
f 457 456 176
f 437 442 441
f 437 441 440
f 437 443 438
f 437 440 439
f 437 439 443
f 437 438 444
f 437 444 445
f 449 517 448
f 450 464 449
f 451 463 450
f 452 462 451
f 453 461 452
f 454 460 453
f 455 458 454
f 456 457 455
f 437 445 537
f 453 460 461
f 457 459 455
f 454 458 460
f 458 455 459
f 451 462 463
f 449 464 517
f 464 450 463
f 462 452 461
f 537 445 446
f 537 446 447
f 537 447 448
f 346 475 476
f 346 476 470
f 470 476 479
f 470 479 472
f 472 480 491
f 472 479 480
f 491 480 501
f 501 502 491
f 528 527 213
f 215 529 528
f 216 530 529
f 223 488 537
f 502 492 491
f 217 531 530
f 218 532 531
f 219 533 532
f 220 534 533
f 222 536 534
f 232 546 535
f 221 535 536
f 223 537 538
f 224 538 539
f 225 539 540
f 226 540 543
f 227 541 542
f 229 543 541
f 237 551 545
f 231 545 544
f 234 548 546
f 233 547 548
f 230 544 547
f 235 549 550
f 236 550 552
f 238 552 551
f 228 542 549
f 414 437 537
f 537 513 433
f 537 514 513
f 537 448 517
f 537 517 518
f 537 518 519
f 528 525 526
f 528 526 527
f 537 519 520
f 537 520 521
f 537 521 522
f 537 522 523
f 537 523 524
f 537 524 525
f 537 492 502
f 537 488 489
f 537 489 492
f 537 502 509
f 537 510 508
f 537 516 514
f 537 508 516
f 537 509 510
f 528 537 525
f 528 529 537
f 529 530 537
f 530 531 537
f 531 532 537
f 532 533 537
f 537 539 538
f 537 540 539
f 537 552 550
f 537 551 552
f 537 543 540
f 537 541 543
f 537 542 541
f 537 550 549
f 537 549 542
f 533 534 537
f 534 536 537
f 535 537 536
f 535 546 537
f 537 546 548
f 537 548 547
f 537 547 544
f 537 544 545
f 537 545 551
f 2 296 3
f 4 3 296
f 5 4 297
f 6 5 298
f 7 6 299
f 8 7 300
f 9 8 301
f 10 9 302
f 11 10 303
f 12 11 304
f 13 12 305
f 16 15 308
f 14 13 306
f 15 14 307
f 17 16 309
f 19 17 310
f 20 18 313
f 18 19 312
f 295 296 2
f 4 296 297
f 5 297 298
f 6 298 299
f 7 299 300
f 8 300 301
f 9 301 302
f 10 302 303
f 11 303 304
f 12 304 305
f 13 305 306
f 14 306 307
f 15 307 308
f 16 308 309
f 17 309 310
f 313 18 311
f 18 312 311
f 19 310 312
f 21 315 22
f 23 22 315
f 24 23 316
f 25 24 317
f 26 25 318
f 27 26 319
f 28 27 320
f 54 28 321
f 55 54 375
f 56 55 376
f 57 56 377
f 58 57 378
f 64 58 379
f 59 64 385
f 63 59 380
f 60 61 381
f 61 62 383
f 62 63 384
f 314 315 21
f 23 315 316
f 24 316 317
f 25 317 318
f 26 318 319
f 27 319 320
f 28 320 321
f 54 321 375
f 55 375 376
f 56 376 377
f 57 377 378
f 58 378 379
f 64 379 385
f 59 385 380
f 62 384 383
f 381 61 382
f 61 383 382
f 63 380 384
f 160 159 439
f 161 160 440
f 162 161 442
f 159 163 443
f 163 158 438
f 158 164 444
f 164 165 445
f 165 166 446
f 166 167 447
f 167 168 448
f 168 169 449
f 169 170 450
f 170 171 451
f 171 172 452
f 172 173 453
f 173 174 454
f 174 175 455
f 176 455 175
f 159 443 439
f 161 440 441
f 442 161 441
f 160 439 440
f 163 438 443
f 158 444 438
f 164 445 444
f 165 446 445
f 166 447 446
f 167 448 447
f 168 449 448
f 169 450 449
f 170 451 450
f 171 452 451
f 172 453 452
f 173 454 453
f 174 455 454
f 176 456 455
f 179 178 458
f 177 179 457
f 178 180 460
f 180 181 461
f 182 183 463
f 183 184 464
f 181 182 462
f 184 203 517
f 203 204 518
f 204 205 519
f 205 206 520
f 206 207 521
f 207 208 522
f 208 209 523
f 209 210 524
f 210 211 525
f 211 212 526
f 213 526 212
f 178 460 458
f 179 458 459
f 457 179 459
f 180 461 460
f 181 462 461
f 182 463 462
f 183 464 463
f 184 517 464
f 203 518 517
f 204 519 518
f 205 520 519
f 206 521 520
f 207 522 521
f 208 523 522
f 209 524 523
f 210 525 524
f 211 526 525
f 213 527 526
f 108 118 110
f 108 107 114
f 109 110 117
f 109 129 122
f 107 111 113
f 108 114 118
f 114 107 113
f 110 118 117
f 109 117 129
f 111 119 113
f 122 145 138
f 122 138 139
f 122 139 140
f 122 140 141
f 122 141 142
f 122 331 128
f 122 125 124
f 122 128 125
f 122 124 123
f 122 123 143
f 122 143 144
f 122 144 145
f 122 129 337
f 108 110 256
f 109 256 110
f 109 122 256
f 108 256 107
f 107 256 111
f 111 247 119
f 122 142 155
f 142 146 155
f 146 147 156
f 147 148 156
f 148 149 156
f 149 150 156
f 150 151 156
f 151 152 156
f 152 153 156
f 153 154 156
f 154 369 156
f 122 155 256
f 146 156 155
f 254 369 370
f 254 362 363
f 254 366 365
f 254 368 367
f 254 363 368
f 254 367 366
f 254 370 362
f 156 369 254
f 111 256 247
f 119 247 249
f 247 256 248
f 247 248 249
f 248 251 249
f 155 253 256
f 254 334 256
f 256 371 465
f 253 254 256
f 248 256 255
f 256 264 257
f 248 255 251
f 255 256 258
f 256 257 261
f 257 264 262
f 255 258 251
f 258 256 261
f 257 262 261
f 264 265 262
f 256 481 264
f 264 481 265
f 122 337 331
f 128 331 126
f 127 126 331
f 127 331 322
f 322 331 323
f 323 331 324
f 331 325 324
f 331 326 325
f 331 327 326
f 331 328 327
f 331 353 328
f 331 354 353
f 331 355 354
f 331 357 355
f 331 358 357
f 331 359 358
f 331 360 359
f 331 361 360
f 331 356 361
f 331 338 332
f 332 339 333
f 333 341 334
f 334 342 335
f 335 345 336
f 331 337 338
f 332 338 339
f 333 339 341
f 334 341 342
f 335 342 345
f 331 364 356
f 254 364 331
f 254 331 332
f 254 332 333
f 254 333 334
f 336 372 371
f 254 365 364
f 256 334 335
f 256 336 371
f 256 335 336
f 336 467 372
f 336 345 469
f 372 467 466
f 465 466 467
f 256 465 467
f 256 467 468
f 336 469 467
f 467 471 468
f 467 469 471
f 256 468 484
f 256 484 482
f 256 483 481
f 256 482 483
f 265 481 485
f 483 485 481
f 483 482 487
f 468 490 484
f 484 486 482
f 483 487 485
f 482 486 487
f 484 490 486
f 468 471 490
f 117 121 129
f 117 106 121
f 114 116 118
f 118 116 112
f 113 115 116
f 114 113 116
f 117 118 106
f 118 112 106
f 113 119 115
f 119 120 115
f 129 121 337
f 119 250 120
f 119 249 250
f 249 251 250
f 251 252 250
f 251 258 252
f 258 259 252
f 258 260 259
f 258 261 260
f 261 262 260
f 262 263 260
f 262 265 263
f 265 266 263
f 265 488 266
f 337 121 329
f 337 329 330
f 337 330 338
f 338 340 339
f 338 330 340
f 339 340 341
f 341 340 343
f 341 343 344
f 341 344 342
f 342 344 346
f 342 346 345
f 345 346 469
f 469 346 470
f 469 472 471
f 469 470 472
f 265 485 488
f 487 488 485
f 487 489 488
f 486 492 489
f 487 486 489
f 471 491 490
f 490 491 486
f 471 472 491
f 486 491 492
f 90 96 91
f 91 97 94
f 90 92 98
f 92 93 99
f 93 95 101
f 90 91 189
f 92 189 93
f 90 189 92
f 91 94 189
f 93 189 95
f 91 96 97
f 94 97 100
f 92 99 98
f 90 98 96
f 93 101 99
f 95 193 101
f 94 100 102
f 94 102 189
f 102 103 189
f 102 104 103
f 103 130 189
f 130 131 189
f 131 132 189
f 132 133 189
f 102 100 104
f 103 104 105
f 103 105 130
f 130 134 131
f 131 135 132
f 132 136 133
f 133 137 239
f 130 105 134
f 131 134 135
f 132 135 136
f 133 136 137
f 95 189 187
f 95 187 193
f 187 189 188
f 189 191 190
f 189 192 191
f 187 188 194
f 188 189 195
f 189 190 196
f 190 191 197
f 191 192 198
f 187 194 193
f 188 195 194
f 189 196 195
f 190 197 196
f 191 198 197
f 189 199 192
f 189 200 199
f 133 239 189
f 189 239 241
f 189 241 240
f 189 240 242
f 189 242 200
f 192 199 201
f 199 200 202
f 192 201 198
f 199 202 201
f 239 243 241
f 242 240 244
f 241 245 240
f 200 242 246
f 239 137 243
f 241 243 245
f 242 244 246
f 240 245 244
f 200 246 202
f 347 388 349
f 349 388 348
f 388 373 348
f 349 348 351
f 347 349 352
f 347 352 350
f 349 351 352
f 348 373 374
f 348 374 351
f 388 473 373
f 373 475 374
f 389 388 390
f 347 350 388
f 389 415 388
f 388 350 390
f 389 390 391
f 389 391 415
f 388 415 416
f 388 416 417
f 415 391 418
f 388 417 421
f 388 421 422
f 388 422 432
f 415 418 416
f 416 419 417
f 417 420 421
f 416 418 419
f 417 419 420
f 421 420 423
f 421 423 422
f 422 423 424
f 388 431 429
f 388 429 430
f 388 432 431
f 388 430 497
f 388 497 498
f 430 434 497
f 434 503 497
f 432 434 431
f 422 424 432
f 432 424 433
f 432 511 434
f 432 433 511
f 388 474 473
f 388 477 474
f 373 473 475
f 388 478 477
f 473 474 476
f 473 476 475
f 474 477 479
f 477 478 480
f 474 479 476
f 477 480 479
f 388 498 500
f 388 499 478
f 388 500 499
f 478 499 501
f 499 500 502
f 478 501 480
f 499 502 501
f 498 504 500
f 500 504 506
f 500 506 509
f 500 509 502
f 434 511 503
f 503 512 504
f 503 511 512
f 511 433 513
f 504 507 506
f 504 505 507
f 504 515 505
f 504 512 515
f 515 516 505
f 506 507 510
f 507 505 508
f 505 516 508
f 506 510 509
f 507 508 510
f 511 513 512
f 512 513 514
f 512 514 515
f 515 514 516
f 425 427 426
f 425 429 427
f 425 426 430
f 426 427 428
f 426 428 434
f 427 431 428
f 425 430 429
f 429 431 427
f 426 434 430
f 431 434 428
f 493 494 498
f 493 495 494
f 494 495 496
f 493 497 495
f 494 496 504
f 495 503 496
f 493 498 497
f 497 503 495
f 494 504 498
f 503 504 496
f 371 293 292
f 372 436 293
f 371 292 465
f 371 372 293
f 465 292 435
f 466 435 436
f 465 435 466
f 372 466 436
f 155 53 52
f 156 186 53
f 155 52 253
f 155 156 53
f 253 52 185
f 254 185 186
f 253 185 254
f 156 254 186
f 124 31 30
f 123 30 29
f 128 32 34
f 126 33 32
f 127 267 33
f 125 34 31
f 138 42 35
f 139 35 36
f 140 36 37
f 141 37 38
f 142 38 39
f 146 39 43
f 144 40 41
f 143 29 40
f 145 41 42
f 147 43 44
f 148 44 45
f 149 45 46
f 150 46 47
f 151 47 48
f 152 48 49
f 153 49 50
f 154 50 51
f 369 51 290
f 123 29 143
f 124 125 31
f 124 30 123
f 128 126 32
f 127 33 126
f 127 322 267
f 125 128 34
f 145 42 138
f 138 35 139
f 139 36 140
f 140 37 141
f 141 38 142
f 142 39 146
f 143 40 144
f 144 41 145
f 146 43 147
f 147 44 148
f 148 45 149
f 149 46 150
f 150 47 151
f 151 48 152
f 152 49 153
f 153 50 154
f 154 51 369
f 322 268 267
f 323 269 268
f 324 270 269
f 325 271 270
f 326 272 271
f 327 273 272
f 328 274 273
f 353 275 274
f 354 276 275
f 356 285 277
f 355 278 276
f 357 279 278
f 358 280 279
f 359 281 280
f 360 282 281
f 361 277 282
f 362 291 283
f 363 283 284
f 368 284 289
f 364 286 285
f 365 287 286
f 367 289 288
f 366 288 287
f 370 290 291
f 322 323 268
f 323 324 269
f 324 325 270
f 325 326 271
f 326 327 272
f 327 328 273
f 328 353 274
f 353 354 275
f 354 355 276
f 355 357 278
f 357 358 279
f 358 359 280
f 359 360 281
f 360 361 282
f 361 356 277
f 370 291 362
f 362 283 363
f 363 284 368
f 364 365 286
f 356 364 285
f 365 366 287
f 368 289 367
f 366 367 288
f 369 290 370

