# https://github.com/mikedh/trimesh
v -0.03904475 -0.00386559 0.01313921
v -0.03866130 -0.00357316 0.01232498
v -0.03938886 -0.00310000 0.01270220
v -0.03857464 -0.00400000 0.01308565
v -0.03890190 -0.00382812 0.01267002
v -0.03867652 -0.00310000 0.01219143
v -0.03932955 -0.00355000 0.01289175
v -0.03910417 -0.00337812 0.01241315
v -0.03946885 -0.00310000 0.01318753
v -0.03881899 -0.00396574 0.01311349
v -0.03898910 -0.00387640 0.01289745
v -0.03878979 -0.00372440 0.01247423
v -0.03874669 -0.00395595 0.01286714
v -0.03862820 -0.00386559 0.01261553
v -0.03867264 -0.00334594 0.01222547
v -0.03921139 -0.00373184 0.01301270
v -0.03939025 -0.00333390 0.01278555
v -0.03914357 -0.00371937 0.01276520
v -0.03889493 -0.00349050 0.01234072
v -0.03927310 -0.00324456 0.01253679
v -0.03902508 -0.00362901 0.01251359
v -0.03890659 -0.00324621 0.01226198
v -0.03924991 -0.00348279 0.01263016
v -0.03913142 -0.00310000 0.01237855
v -0.03933530 -0.00357316 0.01317231
v -0.03946266 -0.00310000 0.01293929
v -0.03944163 -0.00333658 0.01303727
v -0.03893532 -0.00392354 0.01312674
v -0.03869799 -0.00399139 0.01309970
v -0.03902120 -0.00387844 0.01301768
v -0.03894908 -0.00385952 0.01278082
v -0.03890838 -0.00393187 0.01300442
v -0.03872700 -0.00365408 0.01239298
v -0.03884847 -0.00378279 0.01256717
v -0.03866173 -0.00398892 0.01297503
v -0.03882741 -0.00390191 0.01276463
v -0.03878500 -0.00396975 0.01298933
v -0.03887093 -0.00392462 0.01288019
v -0.03864710 -0.00373262 0.01244961
v -0.03860177 -0.00396748 0.01284742
v -0.03876742 -0.00385616 0.01263726
v -0.03871039 -0.00380218 0.01253929
v -0.03868896 -0.00392168 0.01273670
v -0.03866786 -0.00346302 0.01226740
v -0.03867554 -0.00322416 0.01219998
v -0.03913341 -0.00380546 0.01307586
v -0.03927719 -0.00364614 0.01295094
v -0.03910716 -0.00381338 0.01295336
v -0.03939742 -0.00321808 0.01274057
v -0.03936748 -0.00344525 0.01283626
v -0.03902832 -0.00378214 0.01271302
v -0.03924482 -0.00364135 0.01282527
v -0.03907143 -0.00380511 0.01282870
v -0.03918372 -0.00373208 0.01288692
v -0.03878008 -0.00353600 0.01232558
v -0.03900365 -0.00343753 0.01237009
v -0.03884588 -0.00361413 0.01239855
v -0.03878653 -0.00342241 0.01227253
v -0.03933828 -0.00317298 0.01261499
v -0.03919456 -0.00331338 0.01246907
v -0.03934163 -0.00329172 0.01265558
v -0.03896834 -0.00373640 0.01258565
v -0.03907073 -0.00350859 0.01245562
v -0.03891088 -0.00368267 0.01248779
v -0.03909119 -0.00368192 0.01263339
v -0.03896399 -0.00356451 0.01242034
v -0.03879426 -0.00317402 0.01221600
v -0.03901075 -0.00331481 0.01232824
v -0.03879184 -0.00329811 0.01223501
v -0.03890413 -0.00337113 0.01229323
v -0.03929865 -0.00352159 0.01275690
v -0.03918455 -0.00343457 0.01251462
v -0.03932779 -0.00341154 0.01270394
v -0.03920512 -0.00360783 0.01269246
v -0.03926861 -0.00336640 0.01257828
v -0.03914507 -0.00356204 0.01256496
v -0.03928229 -0.00310000 0.01252957
v -0.03891106 -0.00310000 0.01225089
v -0.03912456 -0.00324079 0.01238725
v -0.03920875 -0.00317303 0.01245117
v -0.03902499 -0.00317409 0.01230996
v -0.03920319 -0.00374015 0.01315726
v -0.03934187 -0.00356733 0.01303136
v -0.03928057 -0.00365822 0.01309258
v -0.03943397 -0.00310000 0.01281819
v -0.03947435 -0.00310000 0.01306320
v -0.03943766 -0.00321849 0.01285949
v -0.03939570 -0.00344757 0.01296300
v -0.03946622 -0.00321976 0.01311273
v -0.03942465 -0.00333767 0.01290961
v -0.03939942 -0.00345965 0.01310505
v -0.03946122 -0.00321951 0.01298727
v -0.03943653 -0.00333976 0.01318385
v -0.03881834 -0.00386559 0.01512635
v -0.03826156 -0.00357316 0.01583346
v -0.03905533 -0.00310000 0.01562957
v -0.03834823 -0.00400000 0.01507279
v -0.03857362 -0.00382812 0.01555138
v -0.03824634 -0.00310000 0.01596701
v -0.03904018 -0.00355000 0.01543154
v -0.03871291 -0.00337812 0.01584717
v -0.03924244 -0.00310000 0.01517467
v -0.03859259 -0.00396574 0.01510063
v -0.03870974 -0.00387640 0.01534940
v -0.03842033 -0.00372440 0.01571694
v -0.03846672 -0.00395595 0.01532440
v -0.03829467 -0.00386559 0.01554291
v -0.03825022 -0.00334594 0.01593297
v -0.03895225 -0.00373184 0.01528711
v -0.03907543 -0.00333390 0.01554867
v -0.03883050 -0.00371937 0.01551301
v -0.03910889 -0.00357316 0.01515946
v -0.03849274 -0.00349050 0.01587068
v -0.03890532 -0.00324456 0.01576471
v -0.03865844 -0.00362901 0.01573152
v -0.03848639 -0.00324621 0.01595002
v -0.03890373 -0.00348279 0.01566851
v -0.03873168 -0.00310000 0.01588702
v -0.03918057 -0.00310000 0.01541516
v -0.03918213 -0.00333658 0.01531496
v -0.03870891 -0.00392354 0.01511389
v -0.03847159 -0.00399139 0.01508685
v -0.03876806 -0.00387844 0.01523947
v -0.03864451 -0.00385952 0.01545403
v -0.03865515 -0.00393187 0.01522702
v -0.03834088 -0.00365408 0.01578198
v -0.03849841 -0.00378279 0.01563958
v -0.03840821 -0.00398892 0.01520016
v -0.03852231 -0.00390191 0.01544244
v -0.03853153 -0.00396975 0.01521396
v -0.03859071 -0.00392462 0.01533963
v -0.03827576 -0.00373262 0.01570883
v -0.03832109 -0.00396748 0.01531101
v -0.03843521 -0.00385616 0.01555306
v -0.03835759 -0.00380218 0.01563569
v -0.03838113 -0.00392168 0.01543851
v -0.03825500 -0.00346302 0.01589104
v -0.03824732 -0.00322416 0.01595846
v -0.03889048 -0.00380546 0.01520802
v -0.03900247 -0.00364614 0.01536209
v -0.03883735 -0.00381338 0.01532148
v -0.03897678 -0.00374015 0.01514440
v -0.03907230 -0.00321808 0.01559411
v -0.03906466 -0.00344525 0.01549414
v -0.03870647 -0.00378214 0.01553792
v -0.03894266 -0.00364135 0.01547726
v -0.03877448 -0.00380511 0.01543491
v -0.03889700 -0.00373208 0.01540344
v -0.03908359 -0.00356733 0.01529828
v -0.03903763 -0.00365822 0.01522484
v -0.03837743 -0.00353600 0.01585959
v -0.03860528 -0.00343753 0.01586651
v -0.03845796 -0.00361413 0.01580329
v -0.03837179 -0.00342241 0.01591273
v -0.03898643 -0.00317298 0.01570317
v -0.03881356 -0.00331338 0.01581301
v -0.03899883 -0.00329172 0.01566437
v -0.03861937 -0.00373640 0.01564854
v -0.03868989 -0.00350859 0.01579827
v -0.03854137 -0.00368267 0.01573096
v -0.03874981 -0.00368192 0.01562966
v -0.03857794 -0.00356451 0.01580863
v -0.03836659 -0.00317402 0.01596955
v -0.03860278 -0.00331481 0.01590889
v -0.03836852 -0.00329811 0.01595048
v -0.03849103 -0.00337113 0.01591901
v -0.03897973 -0.00352159 0.01555598
v -0.03881406 -0.00343457 0.01576638
v -0.03899622 -0.00341154 0.01561414
v -0.03887410 -0.00360783 0.01559773
v -0.03891028 -0.00336640 0.01572327
v -0.03878692 -0.00356204 0.01570846
v -0.03891265 -0.00310000 0.01577381
v -0.03848825 -0.00310000 0.01596183
v -0.03872696 -0.00324079 0.01587699
v -0.03882337 -0.00317303 0.01583365
v -0.03861254 -0.00317409 0.01592991
v -0.03912538 -0.00310000 0.01552670
v -0.03921984 -0.00310000 0.01529706
v -0.03913826 -0.00321849 0.01548730
v -0.03912066 -0.00344757 0.01537700
v -0.03922305 -0.00321976 0.01524696
v -0.03913685 -0.00333767 0.01543553
v -0.03915624 -0.00345965 0.01523942
v -0.03918996 -0.00321951 0.01536808
v -0.03921013 -0.00333976 0.01517099
v -0.03904475 0.00386559 0.01313921
v -0.03866130 0.00357316 0.01232498
v -0.03938886 0.00310000 0.01270220
v -0.03857464 0.00400000 0.01308565
v -0.03890190 0.00382812 0.01267002
v -0.03867652 0.00310000 0.01219143
v -0.03932955 0.00355000 0.01289175
v -0.03910417 0.00337812 0.01241315
v -0.03946885 0.00310000 0.01318753
v -0.03881899 0.00396574 0.01311349
v -0.03898910 0.00387640 0.01289745
v -0.03878979 0.00372440 0.01247423
v -0.03874669 0.00395595 0.01286714
v -0.03862820 0.00386559 0.01261553
v -0.03867264 0.00334594 0.01222547
v -0.03921139 0.00373184 0.01301270
v -0.03939025 0.00333390 0.01278555
v -0.03914357 0.00371937 0.01276520
v -0.03889493 0.00349050 0.01234072
v -0.03927310 0.00324456 0.01253679
v -0.03902508 0.00362901 0.01251359
v -0.03890659 0.00324621 0.01226198
v -0.03924991 0.00348279 0.01263016
v -0.03913142 0.00310000 0.01237855
v -0.03933530 0.00357316 0.01317231
v -0.03946266 0.00310000 0.01293929
v -0.03944163 0.00333658 0.01303727
v -0.03893532 0.00392354 0.01312674
v -0.03869799 0.00399139 0.01309970
v -0.03902120 0.00387844 0.01301768
v -0.03894908 0.00385952 0.01278082
v -0.03890838 0.00393187 0.01300442
v -0.03872700 0.00365408 0.01239298
v -0.03884847 0.00378279 0.01256717
v -0.03866173 0.00398892 0.01297503
v -0.03882741 0.00390191 0.01276463
v -0.03878500 0.00396975 0.01298933
v -0.03887093 0.00392462 0.01288019
v -0.03864710 0.00373262 0.01244961
v -0.03860177 0.00396748 0.01284742
v -0.03876742 0.00385616 0.01263726
v -0.03871039 0.00380218 0.01253929
v -0.03868896 0.00392168 0.01273670
v -0.03866786 0.00346302 0.01226740
v -0.03867554 0.00322416 0.01219998
v -0.03913341 0.00380546 0.01307586
v -0.03927719 0.00364614 0.01295094
v -0.03910716 0.00381338 0.01295336
v -0.03939742 0.00321808 0.01274057
v -0.03936748 0.00344525 0.01283626
v -0.03902832 0.00378214 0.01271302
v -0.03924482 0.00364135 0.01282527
v -0.03907143 0.00380511 0.01282870
v -0.03918372 0.00373208 0.01288692
v -0.03878008 0.00353600 0.01232558
v -0.03900365 0.00343753 0.01237009
v -0.03884588 0.00361413 0.01239855
v -0.03878653 0.00342241 0.01227253
v -0.03933828 0.00317298 0.01261499
v -0.03919456 0.00331338 0.01246907
v -0.03934163 0.00329172 0.01265558
v -0.03928229 0.00310000 0.01252957
v -0.03896834 0.00373640 0.01258565
v -0.03907073 0.00350859 0.01245562
v -0.03891088 0.00368267 0.01248779
v -0.03909119 0.00368192 0.01263339
v -0.03896399 0.00356451 0.01242034
v -0.03879426 0.00317402 0.01221600
v -0.03901075 0.00331481 0.01232824
v -0.03879184 0.00329811 0.01223501
v -0.03891106 0.00310000 0.01225089
v -0.03890413 0.00337113 0.01229323
v -0.03929865 0.00352159 0.01275690
v -0.03918455 0.00343457 0.01251462
v -0.03932779 0.00341154 0.01270394
v -0.03920512 0.00360783 0.01269246
v -0.03926861 0.00336640 0.01257828
v -0.03914507 0.00356204 0.01256496
v -0.03912456 0.00324079 0.01238725
v -0.03920875 0.00317303 0.01245117
v -0.03902499 0.00317409 0.01230996
v -0.03920319 0.00374015 0.01315726
v -0.03934187 0.00356733 0.01303136
v -0.03928057 0.00365822 0.01309258
v -0.03943397 0.00310000 0.01281819
v -0.03947435 0.00310000 0.01306320
v -0.03943766 0.00321849 0.01285949
v -0.03939570 0.00344757 0.01296300
v -0.03946622 0.00321976 0.01311273
v -0.03942465 0.00333767 0.01290961
v -0.03939942 0.00345965 0.01310505
v -0.03946122 0.00321951 0.01298727
v -0.03943653 0.00333976 0.01318385
v -0.03881834 0.00386559 0.01512635
v -0.03826156 0.00357316 0.01583346
v -0.03905533 0.00310000 0.01562957
v -0.03834823 0.00400000 0.01507279
v -0.03857362 0.00382812 0.01555138
v -0.03824634 0.00310000 0.01596701
v -0.03904018 0.00355000 0.01543154
v -0.03871291 0.00337812 0.01584717
v -0.03924244 0.00310000 0.01517467
v -0.03859259 0.00396574 0.01510063
v -0.03870974 0.00387640 0.01534940
v -0.03842033 0.00372440 0.01571694
v -0.03846672 0.00395595 0.01532440
v -0.03829467 0.00386559 0.01554291
v -0.03825022 0.00334594 0.01593297
v -0.03895225 0.00373184 0.01528711
v -0.03907543 0.00333390 0.01554867
v -0.03883050 0.00371937 0.01551301
v -0.03910889 0.00357316 0.01515946
v -0.03849274 0.00349050 0.01587068
v -0.03890532 0.00324456 0.01576471
v -0.03865844 0.00362901 0.01573152
v -0.03848639 0.00324621 0.01595002
v -0.03890373 0.00348279 0.01566851
v -0.03873168 0.00310000 0.01588702
v -0.03918057 0.00310000 0.01541516
v -0.03918213 0.00333658 0.01531496
v -0.03870891 0.00392354 0.01511389
v -0.03847159 0.00399139 0.01508685
v -0.03876806 0.00387844 0.01523947
v -0.03864451 0.00385952 0.01545403
v -0.03865515 0.00393187 0.01522702
v -0.03834088 0.00365408 0.01578198
v -0.03849841 0.00378279 0.01563958
v -0.03840821 0.00398892 0.01520016
v -0.03852231 0.00390191 0.01544244
v -0.03853153 0.00396975 0.01521396
v -0.03859071 0.00392462 0.01533963
v -0.03827576 0.00373262 0.01570883
v -0.03832109 0.00396748 0.01531101
v -0.03843521 0.00385616 0.01555306
v -0.03835759 0.00380218 0.01563569
v -0.03838113 0.00392168 0.01543851
v -0.03825500 0.00346302 0.01589104
v -0.03824732 0.00322416 0.01595846
v -0.03889048 0.00380546 0.01520802
v -0.03900247 0.00364614 0.01536209
v -0.03883735 0.00381338 0.01532148
v -0.03897678 0.00374015 0.01514440
v -0.03907230 0.00321808 0.01559411
v -0.03906466 0.00344525 0.01549414
v -0.03870647 0.00378214 0.01553792
v -0.03894266 0.00364135 0.01547726
v -0.03877448 0.00380511 0.01543491
v -0.03889700 0.00373208 0.01540344
v -0.03908359 0.00356733 0.01529828
v -0.03903763 0.00365822 0.01522484
v -0.03837743 0.00353600 0.01585959
v -0.03860528 0.00343753 0.01586651
v -0.03845796 0.00361413 0.01580329
v -0.03837179 0.00342241 0.01591273
v -0.03898643 0.00317298 0.01570317
v -0.03881356 0.00331338 0.01581301
v -0.03899883 0.00329172 0.01566437
v -0.03891265 0.00310000 0.01577381
v -0.03861937 0.00373640 0.01564854
v -0.03868989 0.00350859 0.01579827
v -0.03854137 0.00368267 0.01573096
v -0.03874981 0.00368192 0.01562966
v -0.03857794 0.00356451 0.01580863
v -0.03836659 0.00317402 0.01596955
v -0.03860278 0.00331481 0.01590889
v -0.03836852 0.00329811 0.01595048
v -0.03848825 0.00310000 0.01596183
v -0.03849103 0.00337113 0.01591901
v -0.03897973 0.00352159 0.01555598
v -0.03881406 0.00343457 0.01576638
v -0.03899622 0.00341154 0.01561414
v -0.03887410 0.00360783 0.01559773
v -0.03891028 0.00336640 0.01572327
v -0.03878692 0.00356204 0.01570846
v -0.03872696 0.00324079 0.01587699
v -0.03882337 0.00317303 0.01583365
v -0.03861254 0.00317409 0.01592991
v -0.03912538 0.00310000 0.01552670
v -0.03921984 0.00310000 0.01529706
v -0.03913826 0.00321849 0.01548730
v -0.03912066 0.00344757 0.01537700
v -0.03922305 0.00321976 0.01524696
v -0.03913685 0.00333767 0.01543553
v -0.03915624 0.00345965 0.01523942
v -0.03918996 0.00321951 0.01536808
v -0.03921013 0.00333976 0.01517099
v -0.02618166 -0.00386559 0.01167365
v -0.02673844 -0.00357316 0.01096654
v -0.02594467 -0.00310000 0.01117043
v -0.02665177 -0.00400000 0.01172721
v -0.02642639 -0.00382812 0.01124862
v -0.02675365 -0.00310000 0.01083299
v -0.02595982 -0.00355000 0.01136846
v -0.02628709 -0.00337812 0.01095283
v -0.02575756 -0.00310000 0.01162533
v -0.02640741 -0.00396574 0.01169937
v -0.02629026 -0.00387640 0.01145060
v -0.02657967 -0.00372440 0.01108306
v -0.02653328 -0.00395595 0.01147560
v -0.02670534 -0.00386559 0.01125709
v -0.02674978 -0.00334594 0.01086703
v -0.02604775 -0.00373184 0.01151289
v -0.02592457 -0.00333390 0.01125133
v -0.02616950 -0.00371937 0.01128699
v -0.02650726 -0.00349050 0.01092932
v -0.02609468 -0.00324456 0.01103529
v -0.02634156 -0.00362901 0.01106848
v -0.02651361 -0.00324621 0.01084998
v -0.02609627 -0.00348279 0.01113149
v -0.02626832 -0.00310000 0.01091298
v -0.02589111 -0.00357316 0.01164054
v -0.02581943 -0.00310000 0.01138484
v -0.02581787 -0.00333658 0.01148504
v -0.02629109 -0.00392354 0.01168611
v -0.02652841 -0.00399139 0.01171315
v -0.02623194 -0.00387844 0.01156053
v -0.02635549 -0.00385952 0.01134597
v -0.02634485 -0.00393187 0.01157298
v -0.02665912 -0.00365408 0.01101802
v -0.02650159 -0.00378279 0.01116042
v -0.02672424 -0.00373262 0.01109117
v -0.02659179 -0.00398892 0.01159984
v -0.02647769 -0.00390191 0.01135756
v -0.02646847 -0.00396975 0.01158604
v -0.02667891 -0.00396748 0.01148899
v -0.02640929 -0.00392462 0.01146037
v -0.02656479 -0.00385616 0.01124694
v -0.02664241 -0.00380218 0.01116431
v -0.02661887 -0.00392168 0.01136149
v -0.02674500 -0.00346302 0.01090896
v -0.02675268 -0.00322416 0.01084154
v -0.02610952 -0.00380546 0.01159198
v -0.02599753 -0.00364614 0.01143791
v -0.02616265 -0.00381338 0.01147852
v -0.02592770 -0.00321808 0.01120589
v -0.02593534 -0.00344525 0.01130586
v -0.02629353 -0.00378214 0.01126208
v -0.02605734 -0.00364135 0.01132274
v -0.02622551 -0.00380511 0.01136509
v -0.02610300 -0.00373208 0.01139656
v -0.02662257 -0.00353600 0.01094041
v -0.02639472 -0.00343753 0.01093349
v -0.02654204 -0.00361413 0.01099671
v -0.02662821 -0.00342241 0.01088727
v -0.02601357 -0.00317298 0.01109683
v -0.02618643 -0.00331338 0.01098699
v -0.02600117 -0.00329172 0.01113563
v -0.02638063 -0.00373640 0.01115146
v -0.02631012 -0.00350859 0.01100173
v -0.02645863 -0.00368267 0.01106904
v -0.02625019 -0.00368192 0.01117034
v -0.02642206 -0.00356451 0.01099137
v -0.02663341 -0.00317402 0.01083045
v -0.02639722 -0.00331481 0.01089111
v -0.02663149 -0.00329811 0.01084952
v -0.02650898 -0.00337113 0.01088098
v -0.02602027 -0.00352159 0.01124402
v -0.02618594 -0.00343457 0.01103362
v -0.02600378 -0.00341154 0.01118586
v -0.02612590 -0.00360783 0.01120227
v -0.02608972 -0.00336640 0.01107673
v -0.02621308 -0.00356204 0.01109154
v -0.02608735 -0.00310000 0.01102619
v -0.02651175 -0.00310000 0.01083817
v -0.02627304 -0.00324079 0.01092301
v -0.02617663 -0.00317303 0.01096635
v -0.02638745 -0.00317409 0.01087009
v -0.02602322 -0.00374015 0.01165559
v -0.02591641 -0.00356733 0.01150172
v -0.02596237 -0.00365822 0.01157516
v -0.02587462 -0.00310000 0.01127330
v -0.02578016 -0.00310000 0.01150294
v -0.02586174 -0.00321849 0.01131270
v -0.02587934 -0.00344757 0.01142300
v -0.02577695 -0.00321976 0.01155304
v -0.02586315 -0.00333767 0.01136447
v -0.02584376 -0.00345965 0.01156058
v -0.02581003 -0.00321951 0.01143192
v -0.02578987 -0.00333976 0.01162901
v -0.02595525 -0.00386559 0.01366079
v -0.02633870 -0.00357316 0.01447502
v -0.02561114 -0.00310000 0.01409780
v -0.02642537 -0.00400000 0.01371435
v -0.02609810 -0.00382812 0.01412998
v -0.02632348 -0.00310000 0.01460857
v -0.02567045 -0.00355000 0.01390825
v -0.02589583 -0.00337812 0.01438685
v -0.02553115 -0.00310000 0.01361247
v -0.02618101 -0.00396574 0.01368651
v -0.02601090 -0.00387640 0.01390255
v -0.02621021 -0.00372440 0.01432577
v -0.02625331 -0.00395595 0.01393286
v -0.02637180 -0.00386559 0.01418447
v -0.02632736 -0.00334594 0.01457453
v -0.02578861 -0.00373184 0.01378730
v -0.02560975 -0.00333390 0.01401445
v -0.02585643 -0.00371937 0.01403480
v -0.02566470 -0.00357316 0.01362769
v -0.02610508 -0.00349050 0.01445928
v -0.02572690 -0.00324456 0.01426321
v -0.02597492 -0.00362901 0.01428641
v -0.02609341 -0.00324621 0.01453802
v -0.02575009 -0.00348279 0.01416984
v -0.02586858 -0.00310000 0.01442145
v -0.02553735 -0.00310000 0.01386071
v -0.02555837 -0.00333658 0.01376273
v -0.02606468 -0.00392354 0.01367326
v -0.02630201 -0.00399139 0.01370030
v -0.02597880 -0.00387844 0.01378232
v -0.02605092 -0.00385952 0.01401918
v -0.02609162 -0.00393187 0.01379558
v -0.02627300 -0.00365408 0.01440702
v -0.02615153 -0.00378279 0.01423283
v -0.02635290 -0.00373262 0.01435039
v -0.02633827 -0.00398892 0.01382497
v -0.02617259 -0.00390191 0.01403537
v -0.02621500 -0.00396975 0.01381067
v -0.02639822 -0.00396748 0.01395258
v -0.02612907 -0.00392462 0.01391981
v -0.02623258 -0.00385616 0.01416274
v -0.02628962 -0.00380218 0.01426071
v -0.02631104 -0.00392168 0.01406330
v -0.02633214 -0.00346302 0.01453260
v -0.02632446 -0.00322416 0.01460002
v -0.02586659 -0.00380546 0.01372414
v -0.02572281 -0.00364614 0.01384906
v -0.02589284 -0.00381338 0.01384664
v -0.02579682 -0.00374015 0.01364274
v -0.02560258 -0.00321808 0.01405943
v -0.02563252 -0.00344525 0.01396374
v -0.02597168 -0.00378214 0.01408698
v -0.02575519 -0.00364135 0.01397473
v -0.02592858 -0.00380511 0.01397130
v -0.02581628 -0.00373208 0.01391308
v -0.02565813 -0.00356733 0.01376864
v -0.02571943 -0.00365822 0.01370742
v -0.02621992 -0.00353600 0.01447442
v -0.02599635 -0.00343753 0.01442991
v -0.02615412 -0.00361413 0.01440145
v -0.02621347 -0.00342241 0.01452747
v -0.02566172 -0.00317298 0.01418501
v -0.02580544 -0.00331338 0.01433093
v -0.02565837 -0.00329172 0.01414442
v -0.02603166 -0.00373640 0.01421435
v -0.02592927 -0.00350859 0.01434438
v -0.02608912 -0.00368267 0.01431221
v -0.02590881 -0.00368192 0.01416661
v -0.02603601 -0.00356451 0.01437966
v -0.02620574 -0.00317402 0.01458400
v -0.02598925 -0.00331481 0.01447176
v -0.02620816 -0.00329811 0.01456499
v -0.02609587 -0.00337113 0.01450677
v -0.02570136 -0.00352159 0.01404310
v -0.02581545 -0.00343457 0.01428538
v -0.02567221 -0.00341154 0.01409606
v -0.02579488 -0.00360783 0.01410754
v -0.02573139 -0.00336640 0.01422172
v -0.02585493 -0.00356204 0.01423504
v -0.02571771 -0.00310000 0.01427044
v -0.02608894 -0.00310000 0.01454911
v -0.02587544 -0.00324079 0.01441275
v -0.02579125 -0.00317303 0.01434883
v -0.02597501 -0.00317409 0.01449004
v -0.02556602 -0.00310000 0.01398181
v -0.02552565 -0.00310000 0.01373680
v -0.02556234 -0.00321849 0.01394051
v -0.02560430 -0.00344757 0.01383700
v -0.02553378 -0.00321976 0.01368727
v -0.02557535 -0.00333767 0.01389039
v -0.02560058 -0.00345965 0.01369495
v -0.02553878 -0.00321951 0.01381273
v -0.02556347 -0.00333976 0.01361615
v -0.02618166 0.00386559 0.01167365
v -0.02673844 0.00357316 0.01096654
v -0.02594467 0.00310000 0.01117043
v -0.02665177 0.00400000 0.01172721
v -0.02642639 0.00382812 0.01124862
v -0.02675365 0.00310000 0.01083299
v -0.02595982 0.00355000 0.01136846
v -0.02628709 0.00337812 0.01095283
v -0.02575756 0.00310000 0.01162533
v -0.02640741 0.00396574 0.01169937
v -0.02629026 0.00387640 0.01145060
v -0.02657967 0.00372440 0.01108306
v -0.02653328 0.00395595 0.01147560
v -0.02670534 0.00386559 0.01125709
v -0.02674978 0.00334594 0.01086703
v -0.02604775 0.00373184 0.01151289
v -0.02592457 0.00333390 0.01125133
v -0.02616950 0.00371937 0.01128699
v -0.02650726 0.00349050 0.01092932
v -0.02609468 0.00324456 0.01103529
v -0.02634156 0.00362901 0.01106848
v -0.02651361 0.00324621 0.01084998
v -0.02609627 0.00348279 0.01113149
v -0.02626832 0.00310000 0.01091298
v -0.02589111 0.00357316 0.01164054
v -0.02581943 0.00310000 0.01138484
v -0.02581787 0.00333658 0.01148504
v -0.02629109 0.00392354 0.01168611
v -0.02652841 0.00399139 0.01171315
v -0.02623194 0.00387844 0.01156053
v -0.02635549 0.00385952 0.01134597
v -0.02634485 0.00393187 0.01157298
v -0.02665912 0.00365408 0.01101802
v -0.02650159 0.00378279 0.01116042
v -0.02672424 0.00373262 0.01109117
v -0.02659179 0.00398892 0.01159984
v -0.02647769 0.00390191 0.01135756
v -0.02646847 0.00396975 0.01158604
v -0.02667891 0.00396748 0.01148899
v -0.02640929 0.00392462 0.01146037
v -0.02656479 0.00385616 0.01124694
v -0.02664241 0.00380218 0.01116431
v -0.02661887 0.00392168 0.01136149
v -0.02674500 0.00346302 0.01090896
v -0.02675268 0.00322416 0.01084154
v -0.02610952 0.00380546 0.01159198
v -0.02599753 0.00364614 0.01143791
v -0.02616265 0.00381338 0.01147852
v -0.02592770 0.00321808 0.01120589
v -0.02593534 0.00344525 0.01130586
v -0.02629353 0.00378214 0.01126208
v -0.02605734 0.00364135 0.01132274
v -0.02622551 0.00380511 0.01136509
v -0.02610300 0.00373208 0.01139656
v -0.02662257 0.00353600 0.01094041
v -0.02639472 0.00343753 0.01093349
v -0.02654204 0.00361413 0.01099671
v -0.02662821 0.00342241 0.01088727
v -0.02601357 0.00317298 0.01109683
v -0.02618643 0.00331338 0.01098699
v -0.02600117 0.00329172 0.01113563
v -0.02608735 0.00310000 0.01102619
v -0.02638063 0.00373640 0.01115146
v -0.02631012 0.00350859 0.01100173
v -0.02645863 0.00368267 0.01106904
v -0.02625019 0.00368192 0.01117034
v -0.02642206 0.00356451 0.01099137
v -0.02663341 0.00317402 0.01083045
v -0.02639722 0.00331481 0.01089111
v -0.02663149 0.00329811 0.01084952
v -0.02651175 0.00310000 0.01083817
v -0.02650898 0.00337113 0.01088098
v -0.02602027 0.00352159 0.01124402
v -0.02618594 0.00343457 0.01103362
v -0.02600378 0.00341154 0.01118586
v -0.02612590 0.00360783 0.01120227
v -0.02608972 0.00336640 0.01107673
v -0.02621308 0.00356204 0.01109154
v -0.02627304 0.00324079 0.01092301
v -0.02617663 0.00317303 0.01096635
v -0.02638745 0.00317409 0.01087009
v -0.02602322 0.00374015 0.01165559
v -0.02591641 0.00356733 0.01150172
v -0.02596237 0.00365822 0.01157516
v -0.02587462 0.00310000 0.01127330
v -0.02578016 0.00310000 0.01150294
v -0.02586174 0.00321849 0.01131270
v -0.02587934 0.00344757 0.01142300
v -0.02577695 0.00321976 0.01155304
v -0.02586315 0.00333767 0.01136447
v -0.02584376 0.00345965 0.01156058
v -0.02581003 0.00321951 0.01143192
v -0.02578987 0.00333976 0.01162901
v -0.02595525 0.00386559 0.01366079
v -0.02633870 0.00357316 0.01447502
v -0.02561114 0.00310000 0.01409780
v -0.02642537 0.00400000 0.01371435
v -0.02609810 0.00382812 0.01412998
v -0.02632348 0.00310000 0.01460857
v -0.02567045 0.00355000 0.01390825
v -0.02589583 0.00337812 0.01438685
v -0.02553115 0.00310000 0.01361247
v -0.02618101 0.00396574 0.01368651
v -0.02601090 0.00387640 0.01390255
v -0.02621021 0.00372440 0.01432577
v -0.02625331 0.00395595 0.01393286
v -0.02637180 0.00386559 0.01418447
v -0.02632736 0.00334594 0.01457453
v -0.02578861 0.00373184 0.01378730
v -0.02560975 0.00333390 0.01401445
v -0.02585643 0.00371937 0.01403480
v -0.02566470 0.00357316 0.01362769
v -0.02610508 0.00349050 0.01445928
v -0.02572690 0.00324456 0.01426321
v -0.02597492 0.00362901 0.01428641
v -0.02609341 0.00324621 0.01453802
v -0.02575009 0.00348279 0.01416984
v -0.02586858 0.00310000 0.01442145
v -0.02553735 0.00310000 0.01386071
v -0.02555837 0.00333658 0.01376273
v -0.02606468 0.00392354 0.01367326
v -0.02630201 0.00399139 0.01370030
v -0.02597880 0.00387844 0.01378232
v -0.02605092 0.00385952 0.01401918
v -0.02609162 0.00393187 0.01379558
v -0.02627300 0.00365408 0.01440702
v -0.02615153 0.00378279 0.01423283
v -0.02635290 0.00373262 0.01435039
v -0.02633827 0.00398892 0.01382497
v -0.02617259 0.00390191 0.01403537
v -0.02621500 0.00396975 0.01381067
v -0.02639822 0.00396748 0.01395258
v -0.02612907 0.00392462 0.01391981
v -0.02623258 0.00385616 0.01416274
v -0.02628962 0.00380218 0.01426071
v -0.02631104 0.00392168 0.01406330
v -0.02633214 0.00346302 0.01453260
v -0.02632446 0.00322416 0.01460002
v -0.02586659 0.00380546 0.01372414
v -0.02572281 0.00364614 0.01384906
v -0.02589284 0.00381338 0.01384664
v -0.02579682 0.00374015 0.01364274
v -0.02560258 0.00321808 0.01405943
v -0.02563252 0.00344525 0.01396374
v -0.02597168 0.00378214 0.01408698
v -0.02575519 0.00364135 0.01397473
v -0.02592858 0.00380511 0.01397130
v -0.02581628 0.00373208 0.01391308
v -0.02565813 0.00356733 0.01376864
v -0.02571943 0.00365822 0.01370742
v -0.02621992 0.00353600 0.01447442
v -0.02599635 0.00343753 0.01442991
v -0.02615412 0.00361413 0.01440145
v -0.02621347 0.00342241 0.01452747
v -0.02566172 0.00317298 0.01418501
v -0.02580544 0.00331338 0.01433093
v -0.02565837 0.00329172 0.01414442
v -0.02571771 0.00310000 0.01427044
v -0.02603166 0.00373640 0.01421435
v -0.02592927 0.00350859 0.01434438
v -0.02608912 0.00368267 0.01431221
v -0.02590881 0.00368192 0.01416661
v -0.02603601 0.00356451 0.01437966
v -0.02620574 0.00317402 0.01458400
v -0.02598925 0.00331481 0.01447176
v -0.02620816 0.00329811 0.01456499
v -0.02608894 0.00310000 0.01454911
v -0.02609587 0.00337113 0.01450677
v -0.02570136 0.00352159 0.01404310
v -0.02581545 0.00343457 0.01428538
v -0.02567221 0.00341154 0.01409606
v -0.02579488 0.00360783 0.01410754
v -0.02573139 0.00336640 0.01422172
v -0.02585493 0.00356204 0.01423504
v -0.02587544 0.00324079 0.01441275
v -0.02579125 0.00317303 0.01434883
v -0.02597501 0.00317409 0.01449004
v -0.02556602 0.00310000 0.01398181
v -0.02552565 0.00310000 0.01373680
v -0.02556234 0.00321849 0.01394051
v -0.02560430 0.00344757 0.01383700
v -0.02553378 0.00321976 0.01368727
v -0.02557535 0.00333767 0.01389039
v -0.02560058 0.00345965 0.01369495
v -0.02553878 0.00321951 0.01381273
v -0.02556347 0.00333976 0.01361615
f 288 365 368
f 695 666 712
f 366 305 364
f 365 305 371
f 371 368 365
f 371 305 366
f 366 369 371
f 272 195 275
f 268 232 202
f 278 212 272
f 272 275 278
f 660 740 737
f 712 666 724
f 666 696 724
f 294 352 324
f 366 364 329
f 364 282 329
f 307 280 309
f 309 280 325
f 417 378 439
f 616 573 602
f 271 235 189
f 99 163 138
f 325 328 295
f 680 655 687
f 681 679 683
f 683 679 661
f 706 705 669
f 678 740 744
f 308 314 283
f 308 316 314
f 289 316 308
f 562 587 594
f 571 597 594
f 601 597 571
f 571 595 601
f 598 595 571
f 712 724 726
f 726 724 674
f 735 676 733
f 674 724 722
f 722 724 696
f 722 696 657
f 296 369 366
f 366 329 296
f 363 353 302
f 350 285 324
f 350 324 352
f 352 302 350
f 350 302 353
f 291 312 318
f 709 653 695
f 709 695 712
f 292 322 319
f 292 316 317
f 317 315 292
f 292 315 322
f 319 314 292
f 314 316 292
f 317 316 311
f 307 309 311
f 311 289 307
f 311 316 289
f 394 439 450
f 256 201 231
f 602 560 613
f 613 616 602
f 613 560 591
f 628 603 573
f 573 616 628
f 591 593 570
f 570 593 600
f 592 570 600
f 453 394 450
f 278 276 273
f 235 271 273
f 212 278 273
f 273 271 212
f 232 187 216
f 187 214 216
f 231 192 254
f 254 256 231
f 9 86 89
f 24 79 80
f 80 79 60
f 233 240 238
f 202 240 233
f 173 114 176
f 116 163 174
f 174 177 116
f 635 633 619
f 652 679 681
f 681 697 652
f 559 588 586
f 588 590 586
f 586 590 568
f 682 705 662
f 681 683 662
f 699 697 681
f 705 706 699
f 681 662 699
f 699 662 705
f 737 740 743
f 740 678 743
f 706 698 667
f 697 699 667
f 667 699 706
f 667 698 708
f 708 700 667
f 667 700 697
f 707 670 708
f 708 698 707
f 669 705 703
f 703 705 682
f 704 698 706
f 704 706 669
f 669 730 704
f 190 221 215
f 596 587 568
f 596 594 587
f 568 590 596
f 571 594 596
f 596 598 571
f 590 598 596
f 735 733 723
f 710 726 723
f 723 674 735
f 723 726 674
f 734 733 676
f 710 723 659
f 659 723 733
f 735 674 725
f 674 722 725
f 294 323 340
f 340 352 294
f 304 363 361
f 361 362 304
f 343 296 329
f 369 296 330
f 363 302 351
f 351 361 363
f 287 361 351
f 653 709 684
f 293 322 320
f 320 315 284
f 322 315 320
f 347 291 313
f 313 320 284
f 712 726 671
f 671 709 712
f 671 726 710
f 710 721 671
f 317 311 290
f 290 311 309
f 334 295 326
f 345 313 284
f 347 313 345
f 474 551 554
f 225 219 198
f 198 228 225
f 220 228 198
f 200 228 227
f 229 200 227
f 227 228 220
f 227 222 229
f 585 650 648
f 616 613 577
f 603 628 626
f 564 603 626
f 630 628 616
f 630 577 614
f 616 577 630
f 599 601 595
f 599 592 600
f 600 572 599
f 599 572 601
f 581 633 635
f 635 632 581
f 581 632 636
f 207 253 250
f 235 273 203
f 203 273 276
f 209 261 259
f 259 262 209
f 238 262 259
f 264 260 209
f 209 262 264
f 264 250 260
f 207 250 264
f 191 249 237
f 220 249 191
f 191 227 220
f 222 227 191
f 221 226 199
f 199 226 229
f 229 222 199
f 218 214 196
f 197 216 218
f 218 216 214
f 93 89 27
f 91 93 27
f 182 179 102
f 161 115 172
f 85 87 26
f 85 3 49
f 49 87 85
f 268 202 270
f 202 233 270
f 335 286 326
f 213 276 278
f 213 279 277
f 275 279 213
f 213 278 275
f 276 213 274
f 274 213 277
f 172 115 159
f 118 176 175
f 175 177 118
f 163 116 165
f 165 116 166
f 165 138 163
f 137 151 95
f 95 151 126
f 641 583 649
f 605 641 565
f 604 588 559
f 642 583 641
f 641 605 642
f 642 605 574
f 575 619 633
f 633 608 575
f 575 608 648
f 691 662 683
f 682 662 691
f 691 688 682
f 718 721 710
f 710 659 718
f 673 718 732
f 721 718 673
f 741 743 678
f 658 707 698
f 698 704 658
f 670 707 742
f 742 678 744
f 732 730 720
f 720 703 717
f 720 673 732
f 717 673 720
f 720 730 669
f 669 703 720
f 727 704 730
f 727 729 702
f 702 658 727
f 727 658 704
f 621 592 563
f 563 599 595
f 592 599 563
f 595 598 589
f 589 563 595
f 716 713 672
f 672 734 716
f 672 713 715
f 337 323 281
f 337 340 323
f 281 312 337
f 342 361 287
f 362 361 342
f 344 362 300
f 362 342 300
f 354 351 302
f 354 302 352
f 352 340 354
f 287 351 338
f 351 354 338
f 711 684 709
f 709 671 711
f 711 671 721
f 663 693 686
f 686 684 663
f 663 685 693
f 684 711 663
f 293 320 321
f 321 291 318
f 321 313 291
f 320 313 321
f 310 315 317
f 317 290 310
f 284 315 310
f 310 290 333
f 326 286 332
f 332 334 326
f 325 295 327
f 295 334 327
f 327 309 325
f 327 334 333
f 327 290 309
f 333 290 327
f 301 349 347
f 347 345 301
f 557 551 491
f 557 554 551
f 398 458 464
f 243 198 219
f 243 205 253
f 208 254 257
f 256 254 208
f 188 230 241
f 205 243 241
f 241 219 188
f 241 243 219
f 584 650 644
f 648 650 645
f 645 575 648
f 645 584 643
f 650 584 645
f 565 641 646
f 646 608 565
f 641 649 646
f 648 608 646
f 646 585 648
f 646 649 585
f 650 585 647
f 644 650 647
f 647 567 644
f 635 619 578
f 636 632 622
f 591 570 615
f 615 613 591
f 615 577 613
f 580 626 628
f 628 630 580
f 633 581 631
f 565 608 631
f 631 608 633
f 394 453 440
f 253 205 242
f 242 250 253
f 248 206 266
f 265 210 266
f 266 246 265
f 206 246 266
f 235 203 247
f 247 203 261
f 237 249 252
f 252 264 262
f 252 249 207
f 207 264 252
f 222 191 217
f 217 191 237
f 237 239 217
f 217 239 197
f 221 199 223
f 223 218 196
f 196 215 223
f 223 215 221
f 224 199 222
f 197 218 224
f 224 223 199
f 218 223 224
f 224 217 197
f 222 217 224
f 234 216 197
f 197 239 234
f 232 216 234
f 234 239 240
f 234 202 232
f 234 240 202
f 119 179 185
f 179 182 185
f 54 47 52
f 83 47 84
f 83 25 91
f 84 25 83
f 178 143 96
f 96 143 155
f 155 114 173
f 121 123 94
f 170 161 172
f 172 117 170
f 170 117 167
f 92 26 87
f 92 27 89
f 86 26 92
f 92 89 86
f 92 87 90
f 90 27 92
f 59 49 3
f 90 87 17
f 87 49 17
f 54 52 18
f 18 52 74
f 78 67 22
f 298 335 336
f 336 295 328
f 326 295 336
f 336 335 326
f 269 270 233
f 269 274 277
f 269 211 270
f 277 211 269
f 369 330 367
f 367 330 286
f 286 335 367
f 193 233 238
f 238 259 193
f 193 269 233
f 274 269 193
f 156 176 114
f 156 175 176
f 114 171 156
f 177 175 164
f 166 116 164
f 164 116 177
f 154 151 137
f 154 165 166
f 166 113 154
f 154 113 151
f 537 538 488
f 546 535 488
f 488 535 537
f 546 488 549
f 138 165 108
f 108 154 137
f 165 154 108
f 510 535 471
f 537 535 510
f 510 480 537
f 127 135 105
f 160 127 105
f 126 105 132
f 132 105 135
f 468 527 515
f 515 550 468
f 588 604 606
f 606 604 574
f 574 604 640
f 640 642 574
f 692 688 694
f 693 685 692
f 665 693 692
f 692 694 665
f 689 691 683
f 689 683 661
f 661 680 689
f 689 680 687
f 732 718 728
f 728 718 659
f 654 736 701
f 701 713 654
f 715 713 701
f 737 743 677
f 739 741 678
f 678 742 739
f 702 741 739
f 739 742 707
f 739 658 702
f 707 658 739
f 569 589 598
f 569 590 588
f 569 598 590
f 611 589 569
f 588 606 569
f 569 606 611
f 609 624 621
f 621 563 609
f 563 589 609
f 609 589 611
f 576 609 611
f 624 609 576
f 347 349 339
f 339 337 312
f 339 291 347
f 312 291 339
f 344 300 341
f 341 300 343
f 341 329 282
f 341 343 329
f 343 300 359
f 359 300 342
f 349 338 299
f 299 339 349
f 337 339 299
f 299 338 354
f 340 337 299
f 299 354 340
f 717 685 719
f 685 663 719
f 719 663 711
f 719 673 717
f 721 673 719
f 719 711 721
f 331 345 284
f 284 310 331
f 331 310 333
f 286 330 355
f 355 332 286
f 491 550 552
f 552 557 491
f 550 515 552
f 552 515 482
f 555 552 482
f 557 552 555
f 455 397 456
f 459 457 398
f 398 464 459
f 461 458 381
f 461 464 458
f 251 253 207
f 251 243 253
f 207 249 251
f 198 243 251
f 251 249 220
f 220 198 251
f 267 208 257
f 255 208 267
f 265 255 267
f 267 210 265
f 256 208 258
f 258 208 255
f 255 242 258
f 258 242 205
f 643 561 607
f 607 645 643
f 575 645 607
f 619 575 607
f 651 647 585
f 585 649 651
f 623 615 570
f 623 592 621
f 570 592 623
f 577 615 625
f 614 577 625
f 625 622 614
f 615 623 625
f 627 630 614
f 627 580 630
f 618 632 635
f 635 578 618
f 618 578 638
f 638 637 618
f 582 637 638
f 626 580 629
f 610 605 565
f 565 631 610
f 396 452 451
f 451 453 396
f 451 452 432
f 451 440 453
f 380 451 432
f 440 451 380
f 260 250 194
f 250 242 194
f 194 246 260
f 194 255 265
f 194 242 255
f 265 246 194
f 189 235 245
f 235 247 245
f 245 247 206
f 245 206 248
f 263 261 209
f 263 247 261
f 209 260 263
f 206 247 263
f 260 246 263
f 263 246 206
f 240 239 204
f 204 252 262
f 204 262 238
f 238 240 204
f 204 239 237
f 237 252 204
f 417 439 441
f 439 394 441
f 186 184 120
f 120 182 186
f 120 185 182
f 7 52 47
f 47 83 7
f 157 155 143
f 114 155 157
f 157 171 114
f 97 128 122
f 125 121 103
f 123 121 125
f 94 123 139
f 16 47 54
f 84 47 16
f 84 16 82
f 82 16 46
f 149 184 112
f 112 150 149
f 149 150 140
f 140 100 149
f 49 59 61
f 61 17 49
f 69 22 67
f 70 22 69
f 78 22 81
f 81 79 24
f 60 79 8
f 8 56 63
f 19 56 70
f 417 441 387
f 369 367 306
f 306 371 369
f 306 372 368
f 368 371 306
f 236 193 259
f 261 203 236
f 236 259 261
f 274 193 236
f 236 203 276
f 276 274 236
f 151 113 153
f 126 151 153
f 160 105 153
f 153 105 126
f 172 159 168
f 168 156 171
f 168 117 172
f 168 171 117
f 152 113 166
f 166 164 152
f 480 509 526
f 537 480 526
f 526 538 537
f 477 498 500
f 477 500 507
f 477 525 498
f 522 484 521
f 521 484 556
f 529 515 527
f 482 515 529
f 617 578 619
f 619 607 617
f 617 607 561
f 682 688 656
f 656 692 685
f 688 692 656
f 717 703 656
f 656 703 682
f 656 685 717
f 687 690 664
f 664 689 687
f 690 694 664
f 691 689 664
f 694 688 664
f 688 691 664
f 714 728 659
f 714 659 733
f 733 734 714
f 734 672 714
f 732 728 675
f 675 730 732
f 675 727 730
f 729 727 675
f 731 672 715
f 731 675 728
f 731 714 672
f 728 714 731
f 715 729 731
f 729 675 731
f 668 729 715
f 715 701 668
f 702 729 668
f 668 741 702
f 743 741 738
f 738 701 736
f 736 677 738
f 738 677 743
f 741 668 738
f 738 668 701
f 349 301 346
f 287 338 346
f 346 338 349
f 360 346 301
f 334 332 297
f 333 334 297
f 297 331 333
f 343 359 357
f 296 343 357
f 357 330 296
f 357 355 330
f 557 555 492
f 554 557 492
f 553 521 556
f 472 521 553
f 556 492 553
f 553 492 555
f 397 455 463
f 463 455 460
f 421 375 457
f 457 459 421
f 421 431 375
f 433 431 421
f 462 459 464
f 392 452 449
f 449 431 392
f 432 452 392
f 392 431 433
f 456 454 388
f 494 501 469
f 495 493 466
f 244 241 230
f 256 258 244
f 230 201 244
f 201 256 244
f 205 241 244
f 244 258 205
f 636 622 579
f 622 625 579
f 579 624 636
f 579 625 623
f 621 624 579
f 579 623 621
f 566 622 632
f 614 622 566
f 632 618 566
f 566 627 614
f 637 627 566
f 566 618 637
f 639 627 637
f 637 582 639
f 580 627 639
f 639 629 580
f 624 576 634
f 576 610 634
f 636 624 634
f 634 610 631
f 634 581 636
f 634 631 581
f 612 610 576
f 611 606 612
f 612 576 611
f 612 606 574
f 574 605 612
f 605 610 612
f 440 380 428
f 394 440 442
f 442 441 394
f 440 428 442
f 90 17 50
f 181 120 184
f 184 149 181
f 181 149 100
f 158 98 127
f 158 127 160
f 160 115 158
f 115 161 158
f 134 135 127
f 127 98 134
f 134 107 135
f 145 158 161
f 98 158 145
f 123 125 104
f 140 150 109
f 109 148 140
f 109 150 142
f 142 139 109
f 1 46 30
f 30 28 1
f 60 8 72
f 72 8 63
f 17 61 73
f 73 50 17
f 60 72 75
f 75 72 23
f 23 73 75
f 75 73 61
f 34 62 64
f 34 42 41
f 34 41 5
f 5 62 34
f 51 62 5
f 5 31 51
f 64 62 21
f 45 69 67
f 45 67 6
f 68 22 70
f 68 81 22
f 70 56 68
f 79 81 68
f 68 8 79
f 56 8 68
f 460 455 379
f 424 443 379
f 372 306 370
f 370 306 367
f 370 367 335
f 370 335 298
f 162 115 160
f 160 153 162
f 162 159 115
f 162 153 113
f 162 152 159
f 113 152 162
f 175 156 101
f 101 164 175
f 101 152 164
f 156 168 101
f 101 168 159
f 159 152 101
f 486 527 545
f 545 548 486
f 486 529 527
f 523 509 467
f 523 526 509
f 467 498 523
f 498 525 523
f 534 525 532
f 525 477 532
f 130 125 103
f 103 122 130
f 130 122 128
f 638 578 620
f 578 617 620
f 356 359 342
f 346 360 356
f 356 342 287
f 287 346 356
f 358 297 332
f 332 355 358
f 472 553 516
f 516 555 482
f 516 553 555
f 558 492 556
f 554 492 558
f 399 462 464
f 464 461 399
f 399 463 460
f 460 462 399
f 389 421 459
f 459 462 389
f 433 421 389
f 420 402 383
f 418 388 454
f 418 420 388
f 373 402 418
f 402 420 418
f 497 475 493
f 493 495 497
f 505 497 476
f 476 497 495
f 513 520 519
f 519 476 513
f 513 476 495
f 438 428 435
f 435 428 380
f 441 442 430
f 416 387 430
f 430 387 441
f 391 428 438
f 391 442 428
f 391 430 442
f 90 50 88
f 91 27 88
f 88 27 90
f 88 83 91
f 88 7 83
f 88 50 7
f 185 120 183
f 120 181 183
f 107 134 136
f 140 148 146
f 146 170 167
f 167 100 146
f 146 100 140
f 161 170 111
f 111 148 147
f 111 145 161
f 147 145 111
f 170 146 111
f 111 146 148
f 147 148 141
f 141 139 123
f 123 104 141
f 141 104 147
f 141 109 139
f 148 109 141
f 48 30 46
f 48 16 54
f 46 16 48
f 11 30 48
f 32 10 28
f 32 30 11
f 28 30 32
f 50 73 71
f 74 52 71
f 71 23 74
f 71 73 23
f 52 7 71
f 7 50 71
f 60 75 20
f 20 80 60
f 20 61 59
f 20 75 61
f 77 80 20
f 20 59 77
f 12 34 64
f 12 57 33
f 64 57 12
f 42 34 12
f 33 39 12
f 12 39 42
f 63 21 76
f 76 72 63
f 74 23 76
f 23 72 76
f 69 45 15
f 55 57 19
f 33 57 55
f 64 21 66
f 66 57 64
f 66 21 63
f 19 57 66
f 63 56 66
f 56 19 66
f 447 392 433
f 432 392 447
f 419 379 455
f 419 455 456
f 456 388 419
f 424 379 419
f 531 524 534
f 547 490 549
f 548 490 547
f 529 486 543
f 540 489 543
f 485 525 534
f 485 523 525
f 534 524 485
f 485 524 538
f 538 526 485
f 526 523 485
f 482 529 541
f 541 516 482
f 529 543 541
f 541 543 489
f 544 489 540
f 540 531 544
f 331 297 348
f 297 358 348
f 345 331 348
f 348 358 360
f 348 301 345
f 348 360 301
f 360 358 303
f 303 357 359
f 359 356 303
f 303 356 360
f 355 357 303
f 303 358 355
f 463 399 465
f 465 399 461
f 433 389 445
f 443 395 445
f 445 447 433
f 395 447 445
f 422 462 460
f 422 389 462
f 460 379 422
f 422 379 443
f 443 445 422
f 422 445 389
f 501 478 504
f 504 478 508
f 502 478 505
f 508 478 502
f 506 479 508
f 507 479 506
f 508 502 506
f 506 502 470
f 499 532 477
f 499 506 470
f 499 477 507
f 507 506 499
f 522 521 512
f 512 521 472
f 489 544 542
f 407 405 384
f 384 414 407
f 505 478 503
f 503 497 505
f 503 478 501
f 475 497 503
f 494 475 503
f 503 501 494
f 400 402 373
f 481 514 522
f 520 513 481
f 522 512 481
f 481 512 520
f 444 380 432
f 444 435 380
f 444 448 435
f 432 447 444
f 444 447 395
f 395 448 444
f 429 391 438
f 438 436 429
f 429 384 405
f 436 384 429
f 144 183 181
f 144 100 167
f 144 181 100
f 143 178 180
f 185 183 180
f 180 178 119
f 119 185 180
f 133 136 106
f 128 133 106
f 106 130 128
f 129 134 98
f 129 136 134
f 129 106 136
f 54 18 53
f 53 48 54
f 18 51 53
f 11 48 53
f 53 31 11
f 53 51 31
f 11 31 38
f 38 32 11
f 37 29 10
f 10 32 37
f 32 38 37
f 65 21 62
f 65 76 21
f 62 51 65
f 74 76 65
f 65 18 74
f 65 51 18
f 58 19 70
f 58 55 19
f 70 69 58
f 44 55 58
f 58 15 44
f 69 15 58
f 33 55 2
f 2 55 44
f 434 436 393
f 393 436 438
f 438 435 393
f 435 448 393
f 536 547 549
f 538 524 536
f 536 488 538
f 536 549 488
f 473 531 540
f 524 531 473
f 473 536 524
f 547 536 473
f 505 476 496
f 496 502 505
f 470 502 496
f 496 476 519
f 539 541 489
f 489 542 539
f 516 541 539
f 472 516 539
f 520 512 518
f 518 539 542
f 518 512 472
f 472 539 518
f 519 520 483
f 520 518 483
f 483 518 542
f 425 420 383
f 434 423 377
f 446 443 424
f 446 395 443
f 446 448 395
f 406 436 434
f 406 384 436
f 434 377 406
f 414 384 406
f 401 376 408
f 41 42 14
f 14 43 41
f 41 43 36
f 5 41 36
f 36 31 5
f 36 38 31
f 514 481 511
f 511 481 513
f 511 495 466
f 511 513 495
f 405 374 427
f 427 429 405
f 391 429 427
f 430 391 427
f 427 374 416
f 416 430 427
f 169 144 167
f 167 117 169
f 117 171 169
f 171 157 169
f 124 129 98
f 98 145 124
f 124 145 147
f 147 104 124
f 106 129 131
f 125 130 131
f 130 106 131
f 131 104 125
f 131 124 104
f 129 124 131
f 29 37 35
f 4 29 35
f 13 43 40
f 13 37 38
f 13 36 43
f 38 36 13
f 40 35 13
f 13 35 37
f 528 473 540
f 540 543 528
f 528 543 486
f 547 473 528
f 528 486 548
f 548 547 528
f 533 542 544
f 533 483 542
f 420 425 426
f 388 420 426
f 424 419 426
f 426 419 388
f 403 377 423
f 403 425 383
f 423 425 403
f 390 425 423
f 390 426 425
f 390 446 424
f 424 426 390
f 437 423 434
f 448 446 437
f 434 393 437
f 437 393 448
f 437 390 423
f 446 390 437
f 410 382 401
f 401 408 410
f 386 414 413
f 413 415 386
f 414 406 413
f 413 406 377
f 110 157 143
f 110 169 157
f 144 169 110
f 183 144 110
f 143 180 110
f 110 180 183
f 519 483 517
f 483 533 517
f 517 496 519
f 470 496 517
f 534 532 487
f 487 533 544
f 487 531 534
f 487 544 531
f 404 400 382
f 382 410 404
f 402 400 404
f 383 402 404
f 377 403 409
f 409 413 377
f 415 413 409
f 530 499 470
f 470 517 530
f 530 517 533
f 532 499 530
f 530 487 532
f 533 487 530
f 415 409 385
f 411 415 385
f 385 408 411
f 385 410 408
f 383 404 412
f 412 403 383
f 412 409 403
f 412 385 409
f 412 404 410
f 410 385 412
f 195 102 288
f 9 102 195
f 564 378 192
f 192 378 6
f 9 195 86
f 86 195 272
f 268 328 232
f 232 328 325
f 179 305 365
f 119 305 179
f 288 102 179
f 179 365 288
f 655 314 687
f 283 314 655
f 190 283 655
f 655 562 190
f 275 195 288
f 288 368 275
f 564 192 603
f 603 192 231
f 660 551 474
f 737 551 660
f 687 314 690
f 690 314 319
f 187 232 325
f 325 280 187
f 666 294 324
f 324 696 666
f 323 294 666
f 666 695 323
f 653 323 695
f 281 323 653
f 560 230 188
f 602 230 560
f 219 560 188
f 591 560 219
f 219 593 591
f 225 593 219
f 201 603 231
f 573 603 201
f 201 230 602
f 602 573 201
f 189 3 271
f 271 3 85
f 562 655 680
f 680 587 562
f 568 587 680
f 680 661 568
f 694 690 319
f 319 322 694
f 694 322 293
f 694 293 665
f 214 289 196
f 307 289 214
f 214 187 280
f 214 280 307
f 190 562 594
f 594 221 190
f 221 594 226
f 226 594 597
f 601 226 597
f 229 226 601
f 285 471 657
f 99 471 285
f 696 324 285
f 657 696 285
f 174 163 350
f 350 353 174
f 350 163 99
f 99 285 350
f 228 593 225
f 600 593 228
f 567 660 474
f 567 474 381
f 381 458 567
f 458 644 567
f 254 192 6
f 6 67 254
f 78 257 254
f 254 67 78
f 118 304 176
f 304 362 176
f 344 173 176
f 176 362 344
f 177 304 118
f 177 363 304
f 174 353 177
f 177 353 363
f 586 652 559
f 679 652 586
f 568 661 586
f 661 679 586
f 545 527 713
f 716 545 713
f 713 527 468
f 713 468 654
f 215 283 190
f 215 308 283
f 196 289 215
f 289 308 215
f 600 228 572
f 572 228 200
f 229 601 572
f 572 200 229
f 686 318 684
f 318 312 684
f 281 653 684
f 684 312 281
f 626 378 564
f 626 439 378
f 182 102 9
f 9 89 182
f 182 89 93
f 93 186 182
f 184 186 93
f 184 93 91
f 91 25 184
f 184 25 112
f 26 271 85
f 212 271 26
f 26 86 272
f 272 212 26
f 372 275 368
f 372 279 275
f 535 722 657
f 657 471 535
f 546 725 535
f 535 725 722
f 559 652 604
f 604 652 697
f 708 670 642
f 670 583 642
f 457 375 561
f 643 457 561
f 654 468 736
f 468 550 736
f 742 649 583
f 742 583 670
f 665 293 321
f 321 693 665
f 686 693 321
f 321 318 686
f 397 484 522
f 522 456 397
f 584 457 643
f 398 457 584
f 584 644 458
f 584 458 398
f 660 567 647
f 740 660 647
f 266 80 77
f 77 248 266
f 24 80 266
f 266 210 24
f 178 305 119
f 178 364 305
f 96 282 178
f 178 282 364
f 112 25 150
f 150 25 84
f 336 328 268
f 268 270 336
f 211 336 270
f 298 336 211
f 549 725 546
f 735 725 549
f 509 95 467
f 137 95 509
f 509 108 137
f 480 108 509
f 510 471 99
f 99 138 510
f 510 108 480
f 138 108 510
f 498 95 126
f 467 95 498
f 132 498 126
f 500 498 132
f 507 500 132
f 132 135 507
f 640 604 697
f 697 700 640
f 708 642 640
f 640 700 708
f 677 551 737
f 491 551 677
f 677 736 550
f 677 550 491
f 341 173 344
f 341 155 173
f 96 155 341
f 341 282 96
f 381 474 461
f 474 554 461
f 740 647 651
f 744 740 651
f 649 742 651
f 651 742 744
f 638 452 582
f 582 452 396
f 439 626 629
f 450 439 629
f 245 3 189
f 245 59 3
f 245 248 77
f 77 59 245
f 139 46 1
f 139 1 94
f 82 150 84
f 142 150 82
f 46 139 82
f 82 139 142
f 94 1 28
f 28 121 94
f 81 257 78
f 81 267 257
f 24 210 81
f 210 267 81
f 548 545 716
f 716 734 548
f 617 561 375
f 375 431 617
f 484 397 463
f 556 484 463
f 514 456 522
f 514 454 456
f 469 376 401
f 469 401 494
f 501 128 469
f 469 128 97
f 376 469 4
f 4 469 97
f 450 629 639
f 639 453 450
f 639 582 396
f 396 453 639
f 121 28 10
f 103 121 10
f 39 405 407
f 33 405 39
f 6 378 45
f 45 378 417
f 279 372 370
f 277 279 370
f 298 211 370
f 370 211 277
f 735 549 490
f 490 676 735
f 490 548 734
f 490 734 676
f 620 452 638
f 449 452 620
f 620 617 431
f 620 431 449
f 507 135 479
f 135 107 479
f 414 39 407
f 42 39 414
f 494 401 382
f 382 475 494
f 136 479 107
f 508 479 136
f 29 4 97
f 97 122 29
f 103 10 29
f 29 122 103
f 15 387 416
f 416 44 15
f 15 45 417
f 417 387 15
f 556 463 465
f 465 558 556
f 465 461 554
f 554 558 465
f 504 136 133
f 508 136 504
f 504 128 501
f 504 133 128
f 373 466 400
f 466 493 400
f 475 382 400
f 493 475 400
f 2 405 33
f 2 374 405
f 2 44 416
f 416 374 2
f 42 414 14
f 14 414 386
f 415 14 386
f 43 14 415
f 40 43 415
f 415 411 40
f 373 418 511
f 511 466 373
f 454 514 511
f 511 418 454
f 411 408 35
f 40 411 35
f 376 4 35
f 35 408 376

