# https://github.com/mikedh/trimesh
v -0.02910000 -0.00310520 -0.00574228
v -0.02935519 -0.00300772 -0.00590000
v -0.02925772 -0.00285000 -0.00564480
v -0.02910000 -0.00315000 -0.00590000
v -0.02925000 -0.00309271 -0.00580729
v -0.02940000 -0.00285000 -0.00590000
v -0.02919270 -0.00300000 -0.00565729
v -0.02934271 -0.00294271 -0.00575000
v -0.02910000 -0.00285000 -0.00560000
v -0.02910000 -0.00313858 -0.00581802
v -0.02917797 -0.00310880 -0.00576983
v -0.02931061 -0.00305813 -0.00585181
v -0.02917886 -0.00313532 -0.00585126
v -0.02925772 -0.00310520 -0.00590000
v -0.02938858 -0.00293198 -0.00590000
v -0.02914819 -0.00306061 -0.00569187
v -0.02923017 -0.00292797 -0.00564120
v -0.02922760 -0.00305646 -0.00572366
v -0.02935880 -0.00298017 -0.00582203
v -0.02930813 -0.00289819 -0.00568939
v -0.02930646 -0.00302634 -0.00577240
v -0.02938532 -0.00289874 -0.00582114
v -0.02927634 -0.00297760 -0.00569354
v -0.02935519 -0.00285000 -0.00574228
v -0.02910000 -0.00300772 -0.00564480
v -0.02918198 -0.00285000 -0.00561142
v -0.02914874 -0.00292886 -0.00561468
v -0.01380000 -0.00310520 -0.00574228
v -0.01354480 -0.00300772 -0.00590000
v -0.01364228 -0.00285000 -0.00564480
v -0.01380000 -0.00315000 -0.00590000
v -0.01365000 -0.00309271 -0.00580729
v -0.01350000 -0.00285000 -0.00590000
v -0.01370730 -0.00300000 -0.00565729
v -0.01355730 -0.00294271 -0.00575000
v -0.01380000 -0.00285000 -0.00560000
v -0.01380000 -0.00313858 -0.00581802
v -0.01372203 -0.00310880 -0.00576983
v -0.01358939 -0.00305813 -0.00585181
v -0.01372114 -0.00313532 -0.00585126
v -0.01364228 -0.00310520 -0.00590000
v -0.01351142 -0.00293198 -0.00590000
v -0.01375181 -0.00306061 -0.00569187
v -0.01366983 -0.00292797 -0.00564120
v -0.01367240 -0.00305646 -0.00572366
v -0.01380000 -0.00300772 -0.00564480
v -0.01354120 -0.00298017 -0.00582203
v -0.01359187 -0.00289819 -0.00568939
v -0.01359354 -0.00302634 -0.00577240
v -0.01351468 -0.00289874 -0.00582114
v -0.01362366 -0.00297760 -0.00569354
v -0.01354480 -0.00285000 -0.00574228
v -0.01371802 -0.00285000 -0.00561142
v -0.01375126 -0.00292886 -0.00561468
v -0.02910000 0.00310520 -0.00574228
v -0.02935519 0.00300772 -0.00590000
v -0.02925772 0.00285000 -0.00564480
v -0.02910000 0.00315000 -0.00590000
v -0.02925000 0.00309271 -0.00580729
v -0.02940000 0.00285000 -0.00590000
v -0.02919270 0.00300000 -0.00565729
v -0.02934271 0.00294271 -0.00575000
v -0.02910000 0.00285000 -0.00560000
v -0.02910000 0.00313858 -0.00581802
v -0.02917797 0.00310880 -0.00576983
v -0.02931061 0.00305813 -0.00585181
v -0.02917886 0.00313532 -0.00585126
v -0.02925772 0.00310520 -0.00590000
v -0.02938858 0.00293198 -0.00590000
v -0.02914819 0.00306061 -0.00569187
v -0.02923017 0.00292797 -0.00564120
v -0.02922760 0.00305646 -0.00572366
v -0.02935880 0.00298017 -0.00582203
v -0.02930813 0.00289819 -0.00568939
v -0.02930646 0.00302634 -0.00577240
v -0.02938532 0.00289874 -0.00582114
v -0.02927634 0.00297760 -0.00569354
v -0.02935519 0.00285000 -0.00574228
v -0.02910000 0.00300772 -0.00564480
v -0.02918198 0.00285000 -0.00561142
v -0.02914874 0.00292886 -0.00561468
v -0.01380000 0.00310520 -0.00574228
v -0.01354480 0.00300772 -0.00590000
v -0.01364228 0.00285000 -0.00564480
v -0.01380000 0.00315000 -0.00590000
v -0.01365000 0.00309271 -0.00580729
v -0.01350000 0.00285000 -0.00590000
v -0.01370730 0.00300000 -0.00565729
v -0.01355730 0.00294271 -0.00575000
v -0.01380000 0.00285000 -0.00560000
v -0.01380000 0.00313858 -0.00581802
v -0.01372203 0.00310880 -0.00576983
v -0.01358939 0.00305813 -0.00585181
v -0.01372114 0.00313532 -0.00585126
v -0.01364228 0.00310520 -0.00590000
v -0.01351142 0.00293198 -0.00590000
v -0.01375181 0.00306061 -0.00569187
v -0.01366983 0.00292797 -0.00564120
v -0.01367240 0.00305646 -0.00572366
v -0.01380000 0.00300772 -0.00564480
v -0.01354120 0.00298017 -0.00582203
v -0.01359187 0.00289819 -0.00568939
v -0.01359354 0.00302634 -0.00577240
v -0.01351468 0.00289874 -0.00582114
v -0.01362366 0.00297760 -0.00569354
v -0.01354480 0.00285000 -0.00574228
v -0.01371802 0.00285000 -0.00561142
v -0.01375126 0.00292886 -0.00561468
v -0.02910000 -0.00310520 -0.00695772
v -0.02935519 -0.00300772 -0.00680000
v -0.02925772 -0.00285000 -0.00705520
v -0.02910000 -0.00315000 -0.00680000
v -0.02925000 -0.00309271 -0.00689270
v -0.02940000 -0.00285000 -0.00680000
v -0.02919270 -0.00300000 -0.00704271
v -0.02934271 -0.00294271 -0.00695000
v -0.02910000 -0.00285000 -0.00710000
v -0.02910000 -0.00313858 -0.00688198
v -0.02917797 -0.00310880 -0.00693017
v -0.02931061 -0.00305813 -0.00684819
v -0.02917886 -0.00313532 -0.00684874
v -0.02925772 -0.00310520 -0.00680000
v -0.02938858 -0.00293198 -0.00680000
v -0.02914819 -0.00306061 -0.00700813
v -0.02923017 -0.00292797 -0.00705880
v -0.02922760 -0.00305646 -0.00697634
v -0.02935880 -0.00298017 -0.00687797
v -0.02930813 -0.00289819 -0.00701061
v -0.02930646 -0.00302634 -0.00692760
v -0.02938532 -0.00289874 -0.00687886
v -0.02927634 -0.00297760 -0.00700646
v -0.02935519 -0.00285000 -0.00695772
v -0.02910000 -0.00300772 -0.00705520
v -0.02918198 -0.00285000 -0.00708858
v -0.02914874 -0.00292886 -0.00708532
v -0.01380000 -0.00310520 -0.00695772
v -0.01354480 -0.00300772 -0.00680000
v -0.01364228 -0.00285000 -0.00705520
v -0.01380000 -0.00315000 -0.00680000
v -0.01365000 -0.00309271 -0.00689270
v -0.01350000 -0.00285000 -0.00680000
v -0.01370730 -0.00300000 -0.00704271
v -0.01355730 -0.00294271 -0.00695000
v -0.01380000 -0.00285000 -0.00710000
v -0.01380000 -0.00313858 -0.00688198
v -0.01372203 -0.00310880 -0.00693017
v -0.01358939 -0.00305813 -0.00684819
v -0.01372114 -0.00313532 -0.00684874
v -0.01364228 -0.00310520 -0.00680000
v -0.01351142 -0.00293198 -0.00680000
v -0.01375181 -0.00306061 -0.00700813
v -0.01366983 -0.00292797 -0.00705880
v -0.01367240 -0.00305646 -0.00697634
v -0.01380000 -0.00300772 -0.00705520
v -0.01354120 -0.00298017 -0.00687797
v -0.01359187 -0.00289819 -0.00701061
v -0.01359354 -0.00302634 -0.00692760
v -0.01351468 -0.00289874 -0.00687886
v -0.01362366 -0.00297760 -0.00700646
v -0.01354480 -0.00285000 -0.00695772
v -0.01371802 -0.00285000 -0.00708858
v -0.01375126 -0.00292886 -0.00708532
v -0.02910000 0.00310520 -0.00695772
v -0.02935519 0.00300772 -0.00680000
v -0.02925772 0.00285000 -0.00705520
v -0.02910000 0.00315000 -0.00680000
v -0.02925000 0.00309271 -0.00689270
v -0.02940000 0.00285000 -0.00680000
v -0.02919270 0.00300000 -0.00704271
v -0.02934271 0.00294271 -0.00695000
v -0.02910000 0.00285000 -0.00710000
v -0.02910000 0.00313858 -0.00688198
v -0.02917797 0.00310880 -0.00693017
v -0.02931061 0.00305813 -0.00684819
v -0.02917886 0.00313532 -0.00684874
v -0.02925772 0.00310520 -0.00680000
v -0.02938858 0.00293198 -0.00680000
v -0.02914819 0.00306061 -0.00700813
v -0.02923017 0.00292797 -0.00705880
v -0.02922760 0.00305646 -0.00697634
v -0.02935880 0.00298017 -0.00687797
v -0.02930813 0.00289819 -0.00701061
v -0.02930646 0.00302634 -0.00692760
v -0.02938532 0.00289874 -0.00687886
v -0.02927634 0.00297760 -0.00700646
v -0.02935519 0.00285000 -0.00695772
v -0.02910000 0.00300772 -0.00705520
v -0.02918198 0.00285000 -0.00708858
v -0.02914874 0.00292886 -0.00708532
v -0.01380000 0.00310520 -0.00695772
v -0.01354480 0.00300772 -0.00680000
v -0.01364228 0.00285000 -0.00705520
v -0.01380000 0.00315000 -0.00680000
v -0.01365000 0.00309271 -0.00689270
v -0.01350000 0.00285000 -0.00680000
v -0.01370730 0.00300000 -0.00704271
v -0.01355730 0.00294271 -0.00695000
v -0.01380000 0.00285000 -0.00710000
v -0.01380000 0.00313858 -0.00688198
v -0.01372203 0.00310880 -0.00693017
v -0.01358939 0.00305813 -0.00684819
v -0.01372114 0.00313532 -0.00684874
v -0.01364228 0.00310520 -0.00680000
v -0.01351142 0.00293198 -0.00680000
v -0.01375181 0.00306061 -0.00700813
v -0.01366983 0.00292797 -0.00705880
v -0.01367240 0.00305646 -0.00697634
v -0.01380000 0.00300772 -0.00705520
v -0.01354120 0.00298017 -0.00687797
v -0.01359187 0.00289819 -0.00701061
v -0.01359354 0.00302634 -0.00692760
v -0.01351468 0.00289874 -0.00687886
v -0.01362366 0.00297760 -0.00700646
v -0.01354480 0.00285000 -0.00695772
v -0.01371802 0.00285000 -0.00708858
v -0.01375126 0.00292886 -0.00708532
v -0.02910000 -0.00390520 0.00695772
v -0.02935519 -0.00380772 0.00680000
v -0.02925772 -0.00365000 0.00705520
v -0.02910000 -0.00395000 0.00680000
v -0.02925000 -0.00389271 0.00689270
v -0.02940000 -0.00365000 0.00680000
v -0.02919270 -0.00380000 0.00704271
v -0.02934271 -0.00374271 0.00695000
v -0.02910000 -0.00365000 0.00710000
v -0.02910000 -0.00393858 0.00688198
v -0.02917797 -0.00390880 0.00693017
v -0.02931061 -0.00385813 0.00684819
v -0.02917886 -0.00393532 0.00684874
v -0.02925772 -0.00390520 0.00680000
v -0.02938858 -0.00373198 0.00680000
v -0.02914819 -0.00386061 0.00700813
v -0.02923017 -0.00372797 0.00705880
v -0.02922760 -0.00385646 0.00697634
v -0.02935880 -0.00378017 0.00687797
v -0.02930813 -0.00369819 0.00701061
v -0.02930646 -0.00382634 0.00692760
v -0.02938532 -0.00369874 0.00687886
v -0.02927634 -0.00377760 0.00700646
v -0.02935519 -0.00365000 0.00695772
v -0.02910000 -0.00380772 0.00705520
v -0.02918198 -0.00365000 0.00708858
v -0.02914874 -0.00372886 0.00708532
v -0.01380000 -0.00390520 0.00695772
v -0.01354480 -0.00380772 0.00680000
v -0.01364228 -0.00365000 0.00705520
v -0.01380000 -0.00395000 0.00680000
v -0.01365000 -0.00389271 0.00689270
v -0.01350000 -0.00365000 0.00680000
v -0.01370730 -0.00380000 0.00704271
v -0.01355730 -0.00374271 0.00695000
v -0.01380000 -0.00365000 0.00710000
v -0.01380000 -0.00393858 0.00688198
v -0.01372203 -0.00390880 0.00693017
v -0.01358939 -0.00385813 0.00684819
v -0.01372114 -0.00393532 0.00684874
v -0.01364228 -0.00390520 0.00680000
v -0.01351142 -0.00373198 0.00680000
v -0.01375181 -0.00386061 0.00700813
v -0.01366983 -0.00372797 0.00705880
v -0.01367240 -0.00385646 0.00697634
v -0.01380000 -0.00380772 0.00705520
v -0.01354120 -0.00378017 0.00687797
v -0.01359187 -0.00369819 0.00701061
v -0.01359354 -0.00382634 0.00692760
v -0.01351468 -0.00369874 0.00687886
v -0.01362366 -0.00377760 0.00700646
v -0.01354480 -0.00365000 0.00695772
v -0.01371802 -0.00365000 0.00708858
v -0.01375126 -0.00372886 0.00708532
v -0.02910000 0.00390520 0.00695772
v -0.02935519 0.00380772 0.00680000
v -0.02925772 0.00365000 0.00705520
v -0.02910000 0.00395000 0.00680000
v -0.02925000 0.00389271 0.00689270
v -0.02940000 0.00365000 0.00680000
v -0.02919270 0.00380000 0.00704271
v -0.02934271 0.00374271 0.00695000
v -0.02910000 0.00365000 0.00710000
v -0.02910000 0.00393858 0.00688198
v -0.02917797 0.00390880 0.00693017
v -0.02931061 0.00385813 0.00684819
v -0.02917886 0.00393532 0.00684874
v -0.02925772 0.00390520 0.00680000
v -0.02938858 0.00373198 0.00680000
v -0.02914819 0.00386061 0.00700813
v -0.02923017 0.00372797 0.00705880
v -0.02922760 0.00385646 0.00697634
v -0.02935880 0.00378017 0.00687797
v -0.02930813 0.00369819 0.00701061
v -0.02930646 0.00382634 0.00692760
v -0.02938532 0.00369874 0.00687886
v -0.02927634 0.00377760 0.00700646
v -0.02935519 0.00365000 0.00695772
v -0.02910000 0.00380772 0.00705520
v -0.02918198 0.00365000 0.00708858
v -0.02914874 0.00372886 0.00708532
v -0.01380000 0.00390520 0.00695772
v -0.01354480 0.00380772 0.00680000
v -0.01364228 0.00365000 0.00705520
v -0.01380000 0.00395000 0.00680000
v -0.01365000 0.00389271 0.00689270
v -0.01350000 0.00365000 0.00680000
v -0.01370730 0.00380000 0.00704271
v -0.01355730 0.00374271 0.00695000
v -0.01380000 0.00365000 0.00710000
v -0.01380000 0.00393858 0.00688198
v -0.01372203 0.00390880 0.00693017
v -0.01358939 0.00385813 0.00684819
v -0.01372114 0.00393532 0.00684874
v -0.01364228 0.00390520 0.00680000
v -0.01351142 0.00373198 0.00680000
v -0.01375181 0.00386061 0.00700813
v -0.01366983 0.00372797 0.00705880
v -0.01367240 0.00385646 0.00697634
v -0.01380000 0.00380772 0.00705520
v -0.01354120 0.00378017 0.00687797
v -0.01359187 0.00369819 0.00701061
v -0.01359354 0.00382634 0.00692760
v -0.01351468 0.00369874 0.00687886
v -0.01362366 0.00377760 0.00700646
v -0.01354480 0.00365000 0.00695772
v -0.01371802 0.00365000 0.00708858
v -0.01375126 0.00372886 0.00708532
v -0.02910000 -0.00390520 0.00574228
v -0.02935519 -0.00380772 0.00590000
v -0.02925772 -0.00365000 0.00564480
v -0.02910000 -0.00395000 0.00590000
v -0.02925000 -0.00389271 0.00580729
v -0.02940000 -0.00365000 0.00590000
v -0.02919270 -0.00380000 0.00565729
v -0.02934271 -0.00374271 0.00575000
v -0.02910000 -0.00365000 0.00560000
v -0.02910000 -0.00393858 0.00581802
v -0.02917797 -0.00390880 0.00576983
v -0.02931061 -0.00385813 0.00585181
v -0.02917886 -0.00393532 0.00585126
v -0.02925772 -0.00390520 0.00590000
v -0.02938858 -0.00373198 0.00590000
v -0.02914819 -0.00386061 0.00569187
v -0.02923017 -0.00372797 0.00564120
v -0.02922760 -0.00385646 0.00572366
v -0.02935880 -0.00378017 0.00582203
v -0.02930813 -0.00369819 0.00568939
v -0.02930646 -0.00382634 0.00577240
v -0.02938532 -0.00369874 0.00582114
v -0.02927634 -0.00377760 0.00569354
v -0.02935519 -0.00365000 0.00574228
v -0.02910000 -0.00380772 0.00564480
v -0.02918198 -0.00365000 0.00561142
v -0.02914874 -0.00372886 0.00561468
v -0.01380000 -0.00390520 0.00574228
v -0.01354480 -0.00380772 0.00590000
v -0.01364228 -0.00365000 0.00564480
v -0.01380000 -0.00395000 0.00590000
v -0.01365000 -0.00389271 0.00580729
v -0.01350000 -0.00365000 0.00590000
v -0.01370730 -0.00380000 0.00565729
v -0.01355730 -0.00374271 0.00575000
v -0.01380000 -0.00365000 0.00560000
v -0.01380000 -0.00393858 0.00581802
v -0.01372203 -0.00390880 0.00576983
v -0.01358939 -0.00385813 0.00585181
v -0.01372114 -0.00393532 0.00585126
v -0.01364228 -0.00390520 0.00590000
v -0.01351142 -0.00373198 0.00590000
v -0.01375181 -0.00386061 0.00569187
v -0.01366983 -0.00372797 0.00564120
v -0.01367240 -0.00385646 0.00572366
v -0.01380000 -0.00380772 0.00564480
v -0.01354120 -0.00378017 0.00582203
v -0.01359187 -0.00369819 0.00568939
v -0.01359354 -0.00382634 0.00577240
v -0.01351468 -0.00369874 0.00582114
v -0.01362366 -0.00377760 0.00569354
v -0.01354480 -0.00365000 0.00574228
v -0.01371802 -0.00365000 0.00561142
v -0.01375126 -0.00372886 0.00561468
v -0.02910000 0.00390520 0.00574228
v -0.02935519 0.00380772 0.00590000
v -0.02925772 0.00365000 0.00564480
v -0.02910000 0.00395000 0.00590000
v -0.02925000 0.00389271 0.00580729
v -0.02940000 0.00365000 0.00590000
v -0.02919270 0.00380000 0.00565729
v -0.02934271 0.00374271 0.00575000
v -0.02910000 0.00365000 0.00560000
v -0.02910000 0.00393858 0.00581802
v -0.02917797 0.00390880 0.00576983
v -0.02931061 0.00385813 0.00585181
v -0.02917886 0.00393532 0.00585126
v -0.02925772 0.00390520 0.00590000
v -0.02938858 0.00373198 0.00590000
v -0.02914819 0.00386061 0.00569187
v -0.02923017 0.00372797 0.00564120
v -0.02922760 0.00385646 0.00572366
v -0.02935880 0.00378017 0.00582203
v -0.02930813 0.00369819 0.00568939
v -0.02930646 0.00382634 0.00577240
v -0.02938532 0.00369874 0.00582114
v -0.02927634 0.00377760 0.00569354
v -0.02935519 0.00365000 0.00574228
v -0.02910000 0.00380772 0.00564480
v -0.02918198 0.00365000 0.00561142
v -0.02914874 0.00372886 0.00561468
v -0.01380000 0.00390520 0.00574228
v -0.01354480 0.00380772 0.00590000
v -0.01364228 0.00365000 0.00564480
v -0.01380000 0.00395000 0.00590000
v -0.01365000 0.00389271 0.00580729
v -0.01350000 0.00365000 0.00590000
v -0.01370730 0.00380000 0.00565729
v -0.01355730 0.00374271 0.00575000
v -0.01380000 0.00365000 0.00560000
v -0.01380000 0.00393858 0.00581802
v -0.01372203 0.00390880 0.00576983
v -0.01358939 0.00385813 0.00585181
v -0.01372114 0.00393532 0.00585126
v -0.01364228 0.00390520 0.00590000
v -0.01351142 0.00373198 0.00590000
v -0.01375181 0.00386061 0.00569187
v -0.01366983 0.00372797 0.00564120
v -0.01367240 0.00385646 0.00572366
v -0.01380000 0.00380772 0.00564480
v -0.01354120 0.00378017 0.00582203
v -0.01359187 0.00369819 0.00568939
v -0.01359354 0.00382634 0.00577240
v -0.01351468 0.00369874 0.00582114
v -0.01362366 0.00377760 0.00569354
v -0.01354480 0.00365000 0.00574228
v -0.01371802 0.00365000 0.00561142
v -0.01375126 0.00372886 0.00561468
f 80 63 81
f 123 114 130
f 111 134 125
f 193 202 199
f 194 202 203
f 171 188 189
f 135 134 117
f 135 125 134
f 167 180 183
f 130 132 116
f 80 81 71
f 71 57 80
f 81 61 71
f 74 57 71
f 70 55 65
f 65 67 59
f 70 61 79
f 79 61 81
f 104 87 96
f 89 106 104
f 33 50 42
f 216 208 196
f 196 208 205
f 215 198 216
f 103 105 89
f 92 82 97
f 89 105 102
f 102 106 89
f 98 107 84
f 84 102 98
f 98 102 105
f 202 194 200
f 199 202 200
f 200 190 199
f 205 190 200
f 186 170 182
f 127 123 130
f 129 120 127
f 130 116 127
f 127 116 129
f 3 17 26
f 20 17 3
f 175 166 172
f 175 167 176
f 174 167 183
f 176 167 174
f 129 116 131
f 131 126 129
f 128 116 132
f 128 131 116
f 111 125 128
f 125 131 128
f 58 67 64
f 64 65 55
f 67 65 64
f 74 71 77
f 77 71 61
f 44 30 53
f 216 196 206
f 192 215 206
f 206 215 216
f 101 103 89
f 89 104 101
f 96 83 101
f 101 104 96
f 82 92 91
f 105 103 99
f 99 92 97
f 99 103 86
f 86 92 99
f 93 95 86
f 86 103 93
f 93 101 83
f 103 101 93
f 94 92 86
f 86 95 94
f 94 91 92
f 85 91 94
f 97 100 88
f 88 99 97
f 88 98 105
f 105 99 88
f 107 98 108
f 90 107 108
f 108 88 100
f 98 88 108
f 183 180 185
f 185 170 183
f 185 182 170
f 27 26 17
f 27 7 25
f 17 7 27
f 9 26 27
f 8 20 24
f 123 127 110
f 110 127 120
f 115 135 133
f 125 135 115
f 115 131 125
f 126 131 115
f 113 120 129
f 113 126 119
f 129 126 113
f 113 119 121
f 113 122 120
f 121 122 113
f 180 167 173
f 173 163 178
f 173 178 180
f 167 175 173
f 172 163 173
f 173 175 172
f 72 61 70
f 72 77 61
f 70 65 72
f 72 65 59
f 74 77 62
f 78 74 62
f 62 76 78
f 73 76 62
f 50 52 35
f 54 44 53
f 54 53 36
f 46 34 54
f 54 34 44
f 38 28 37
f 201 194 203
f 180 178 169
f 169 185 180
f 187 189 169
f 169 178 187
f 23 7 17
f 20 8 23
f 17 20 23
f 124 115 133
f 126 115 124
f 109 119 124
f 119 126 124
f 69 76 73
f 69 60 76
f 184 170 186
f 73 66 56
f 56 69 73
f 59 67 68
f 68 66 59
f 59 66 75
f 75 72 59
f 75 66 73
f 77 72 75
f 73 62 75
f 75 62 77
f 47 42 50
f 47 29 42
f 50 35 47
f 51 34 45
f 44 34 51
f 1 11 10
f 10 11 13
f 13 4 10
f 43 34 46
f 45 34 43
f 43 38 45
f 28 38 43
f 49 51 45
f 49 47 35
f 35 51 49
f 118 112 121
f 121 119 118
f 118 119 109
f 179 169 189
f 188 165 179
f 179 189 188
f 185 169 179
f 165 182 179
f 182 185 179
f 7 23 18
f 8 19 21
f 21 23 8
f 21 18 23
f 170 184 181
f 183 170 181
f 181 164 174
f 181 174 183
f 177 184 168
f 164 181 177
f 177 181 184
f 139 145 148
f 30 44 48
f 44 51 48
f 48 51 35
f 48 35 52
f 25 7 16
f 7 18 16
f 11 1 16
f 16 18 11
f 144 161 162
f 209 201 191
f 209 191 204
f 213 206 196
f 15 2 19
f 150 137 155
f 145 136 146
f 146 148 145
f 136 151 146
f 45 38 32
f 32 49 45
f 40 38 37
f 40 32 38
f 41 32 40
f 19 2 12
f 12 21 19
f 152 161 138
f 152 162 161
f 197 214 210
f 210 213 197
f 192 206 210
f 206 213 210
f 197 209 212
f 212 214 197
f 212 209 204
f 204 195 212
f 207 196 205
f 207 213 196
f 205 200 207
f 207 200 194
f 201 209 211
f 213 207 211
f 211 209 197
f 197 213 211
f 194 201 211
f 211 207 194
f 6 15 22
f 22 15 19
f 22 8 24
f 22 19 8
f 150 155 158
f 141 150 158
f 149 148 140
f 148 146 140
f 31 40 37
f 149 140 147
f 147 155 137
f 39 32 41
f 49 32 39
f 29 47 39
f 47 49 39
f 18 21 5
f 11 18 5
f 21 12 5
f 5 14 13
f 5 13 11
f 5 12 14
f 160 158 143
f 143 158 155
f 142 151 154
f 154 162 142
f 162 152 142
f 160 143 156
f 156 152 138
f 157 143 155
f 157 147 140
f 155 147 157
f 153 140 146
f 153 157 140
f 153 146 151
f 151 142 153
f 157 153 159
f 159 156 143
f 143 157 159
f 152 156 159
f 159 142 152
f 159 153 142
f 198 144 117
f 117 171 198
f 63 36 90
f 9 36 63
f 188 171 117
f 117 134 188
f 70 97 82
f 82 55 70
f 90 36 107
f 36 53 107
f 53 30 107
f 107 30 84
f 58 85 193
f 193 166 58
f 193 199 172
f 172 166 193
f 165 188 134
f 165 134 111
f 189 198 171
f 216 198 189
f 189 208 216
f 187 208 189
f 178 208 187
f 205 208 178
f 106 52 104
f 104 52 50
f 104 50 33
f 33 87 104
f 42 150 141
f 42 141 33
f 144 198 215
f 215 161 144
f 138 161 215
f 215 192 138
f 96 204 191
f 191 83 96
f 195 87 33
f 33 141 195
f 195 204 96
f 96 87 195
f 100 97 70
f 70 79 100
f 9 63 26
f 26 63 80
f 26 57 3
f 80 57 26
f 78 24 20
f 20 74 78
f 3 57 20
f 20 57 74
f 205 178 163
f 163 190 205
f 172 199 163
f 199 190 163
f 58 166 175
f 175 67 58
f 128 165 111
f 128 182 165
f 128 132 186
f 186 182 128
f 91 85 58
f 58 64 91
f 55 82 91
f 91 64 55
f 203 202 94
f 94 95 203
f 94 193 85
f 202 193 94
f 108 100 79
f 108 79 81
f 108 63 90
f 108 81 63
f 168 114 60
f 60 114 6
f 25 46 54
f 54 27 25
f 54 36 9
f 9 27 54
f 203 95 201
f 95 93 201
f 83 191 201
f 201 93 83
f 184 114 168
f 130 114 184
f 184 132 130
f 186 132 184
f 56 66 174
f 174 164 56
f 67 175 68
f 68 175 176
f 174 66 68
f 176 174 68
f 37 28 1
f 10 37 1
f 121 112 13
f 13 112 4
f 109 136 118
f 118 136 145
f 118 145 139
f 139 112 118
f 168 60 177
f 60 69 177
f 177 56 164
f 69 56 177
f 150 42 137
f 42 29 137
f 84 30 48
f 48 102 84
f 106 102 48
f 48 52 106
f 16 46 25
f 16 43 46
f 16 1 28
f 28 43 16
f 121 13 14
f 14 122 121
f 109 124 151
f 151 136 109
f 151 124 133
f 133 154 151
f 117 144 162
f 162 135 117
f 162 154 133
f 133 135 162
f 6 114 15
f 114 123 15
f 110 2 15
f 123 110 15
f 149 41 40
f 40 148 149
f 12 110 120
f 12 2 110
f 122 14 12
f 120 122 12
f 22 60 6
f 76 60 22
f 22 24 78
f 78 76 22
f 160 214 158
f 214 212 158
f 158 195 141
f 158 212 195
f 148 40 31
f 139 148 31
f 31 37 10
f 10 4 31
f 4 112 31
f 31 112 139
f 39 41 149
f 149 147 39
f 39 137 29
f 39 147 137
f 138 192 156
f 192 210 156
f 156 210 214
f 156 214 160
f 296 279 297
f 339 330 346
f 327 350 341
f 409 418 415
f 410 418 419
f 387 404 405
f 351 350 333
f 351 341 350
f 383 396 399
f 346 348 332
f 296 297 287
f 287 273 296
f 297 277 287
f 290 273 287
f 286 271 281
f 281 283 275
f 286 277 295
f 295 277 297
f 320 303 312
f 305 322 320
f 249 266 258
f 432 424 412
f 412 424 421
f 431 414 432
f 319 321 305
f 308 298 313
f 305 321 318
f 318 322 305
f 314 323 300
f 300 318 314
f 314 318 321
f 418 410 416
f 415 418 416
f 416 406 415
f 421 406 416
f 402 386 398
f 343 339 346
f 345 336 343
f 346 332 343
f 343 332 345
f 219 233 242
f 236 233 219
f 391 382 388
f 391 383 392
f 390 383 399
f 392 383 390
f 345 332 347
f 347 342 345
f 344 332 348
f 344 347 332
f 327 341 344
f 341 347 344
f 274 283 280
f 280 281 271
f 283 281 280
f 290 287 293
f 293 287 277
f 260 246 269
f 432 412 422
f 408 431 422
f 422 431 432
f 317 319 305
f 305 320 317
f 312 299 317
f 317 320 312
f 298 308 307
f 321 319 315
f 315 308 313
f 315 319 302
f 302 308 315
f 309 311 302
f 302 319 309
f 309 317 299
f 319 317 309
f 310 308 302
f 302 311 310
f 310 307 308
f 301 307 310
f 313 316 304
f 304 315 313
f 304 314 321
f 321 315 304
f 323 314 324
f 306 323 324
f 324 304 316
f 314 304 324
f 399 396 401
f 401 386 399
f 401 398 386
f 243 242 233
f 243 223 241
f 233 223 243
f 225 242 243
f 224 236 240
f 339 343 326
f 326 343 336
f 331 351 349
f 341 351 331
f 331 347 341
f 342 347 331
f 329 336 345
f 329 342 335
f 345 342 329
f 329 335 337
f 329 338 336
f 337 338 329
f 396 383 389
f 389 379 394
f 389 394 396
f 383 391 389
f 388 379 389
f 389 391 388
f 288 277 286
f 288 293 277
f 286 281 288
f 288 281 275
f 290 293 278
f 294 290 278
f 278 292 294
f 289 292 278
f 266 268 251
f 270 260 269
f 270 269 252
f 262 250 270
f 270 250 260
f 254 244 253
f 423 412 421
f 423 416 410
f 421 416 423
f 396 394 385
f 385 401 396
f 403 405 385
f 385 394 403
f 340 331 349
f 342 331 340
f 325 335 340
f 335 342 340
f 285 292 289
f 285 276 292
f 400 386 402
f 289 282 272
f 272 285 289
f 275 283 284
f 284 282 275
f 275 282 291
f 291 288 275
f 291 282 289
f 293 288 291
f 289 278 291
f 291 278 293
f 263 258 266
f 263 245 258
f 266 251 263
f 267 250 261
f 260 250 267
f 217 227 226
f 226 227 229
f 229 220 226
f 259 250 262
f 261 250 259
f 259 254 261
f 244 254 259
f 265 267 261
f 265 263 251
f 251 267 265
f 334 328 337
f 337 335 334
f 334 335 325
f 429 422 412
f 412 423 429
f 425 407 420
f 395 385 405
f 404 381 395
f 395 405 404
f 401 385 395
f 381 398 395
f 398 401 395
f 239 223 233
f 239 234 223
f 233 236 239
f 236 224 239
f 386 400 397
f 399 386 397
f 397 380 390
f 397 390 399
f 393 400 384
f 380 397 393
f 393 397 400
f 355 361 364
f 246 260 264
f 260 267 264
f 264 267 251
f 264 251 268
f 232 234 227
f 227 217 232
f 223 234 232
f 241 223 232
f 360 377 378
f 374 359 376
f 357 366 374
f 413 430 426
f 426 429 413
f 408 422 426
f 422 429 426
f 407 425 417
f 417 410 419
f 428 425 420
f 420 411 428
f 428 430 413
f 413 425 428
f 235 218 228
f 231 218 235
f 361 352 362
f 362 364 361
f 362 352 367
f 261 254 248
f 248 265 261
f 256 254 253
f 256 248 254
f 257 248 256
f 368 377 354
f 368 378 377
f 366 353 371
f 371 374 366
f 359 374 371
f 371 373 359
f 427 429 423
f 427 417 425
f 427 423 410
f 410 417 427
f 413 429 427
f 427 425 413
f 227 234 221
f 221 229 227
f 229 221 230
f 230 221 228
f 234 239 237
f 235 228 237
f 224 235 237
f 237 239 224
f 237 221 234
f 228 221 237
f 238 231 235
f 238 224 240
f 238 235 224
f 222 231 238
f 369 362 367
f 365 364 356
f 364 362 356
f 356 369 373
f 362 369 356
f 247 256 253
f 365 356 363
f 363 356 373
f 363 371 353
f 373 371 363
f 255 248 257
f 265 248 255
f 245 263 255
f 263 265 255
f 372 368 354
f 376 359 372
f 367 370 358
f 370 378 358
f 378 368 358
f 358 369 367
f 359 373 375
f 375 372 359
f 368 372 375
f 373 369 375
f 375 358 368
f 369 358 375
f 414 360 333
f 333 387 414
f 279 252 306
f 225 252 279
f 404 387 333
f 333 350 404
f 286 313 298
f 298 271 286
f 306 252 323
f 252 269 323
f 269 246 323
f 323 246 300
f 274 301 409
f 409 382 274
f 409 415 388
f 388 382 409
f 381 404 350
f 381 350 327
f 405 414 387
f 432 414 405
f 405 424 432
f 403 424 405
f 394 424 403
f 421 424 394
f 322 268 320
f 320 268 266
f 320 266 249
f 249 303 320
f 258 366 357
f 258 357 249
f 360 414 431
f 431 377 360
f 354 377 431
f 431 408 354
f 312 420 407
f 407 299 312
f 411 303 249
f 249 357 411
f 411 420 312
f 312 303 411
f 316 313 286
f 286 295 316
f 225 279 242
f 242 279 296
f 242 273 219
f 296 273 242
f 294 240 236
f 236 290 294
f 219 273 236
f 236 273 290
f 421 394 379
f 379 406 421
f 388 415 379
f 415 406 379
f 274 382 391
f 391 283 274
f 344 381 327
f 344 398 381
f 344 348 402
f 402 398 344
f 307 301 274
f 274 280 307
f 271 298 307
f 307 280 271
f 419 418 310
f 310 311 419
f 310 409 301
f 418 409 310
f 324 316 295
f 324 295 297
f 324 279 306
f 324 297 279
f 384 330 276
f 276 330 222
f 241 262 270
f 270 243 241
f 270 252 225
f 225 243 270
f 400 330 384
f 346 330 400
f 400 348 346
f 402 348 400
f 272 282 390
f 390 380 272
f 283 391 284
f 284 391 392
f 390 282 284
f 392 390 284
f 253 244 217
f 226 253 217
f 337 328 229
f 229 328 220
f 355 328 334
f 334 361 355
f 352 340 367
f 325 340 352
f 361 334 352
f 352 334 325
f 367 340 370
f 370 340 349
f 384 276 393
f 276 285 393
f 393 272 380
f 285 272 393
f 366 258 353
f 258 245 353
f 300 246 264
f 264 318 300
f 322 318 264
f 264 268 322
f 232 262 241
f 232 259 262
f 232 217 244
f 244 259 232
f 333 360 378
f 378 351 333
f 378 370 349
f 349 351 378
f 419 311 417
f 311 309 417
f 299 407 417
f 417 309 299
f 376 430 428
f 428 374 376
f 428 411 357
f 357 374 428
f 228 326 336
f 228 218 326
f 222 330 231
f 330 339 231
f 326 218 231
f 339 326 231
f 365 257 256
f 256 364 365
f 337 229 230
f 230 338 337
f 230 228 336
f 336 338 230
f 238 240 294
f 294 292 238
f 238 276 222
f 292 276 238
f 364 256 247
f 355 364 247
f 247 253 226
f 226 220 247
f 220 328 247
f 247 328 355
f 255 257 365
f 365 363 255
f 255 353 245
f 255 363 353
f 354 408 372
f 408 426 372
f 372 426 430
f 372 430 376

