# https://github.com/mikedh/trimesh
v -0.043750000000 0.009953500000 0.000965000000
v -0.031250000000 0.009953500000 0.000965000000
v -0.043750000000 0.009999500000 -0.000000000000
v -0.031250000000 0.009999500000 -0.000000000000
v -0.043750000000 0.009953500000 -0.000965000000
v -0.031250000000 0.009953500000 -0.000965000000
v -0.043750000000 0.009813500000 -0.001921000000
v -0.031250000000 0.009813500000 -0.001921000000
v -0.043750000000 0.009582500000 -0.002859000000
v -0.031250000000 0.009582500000 -0.002859000000
v -0.043750000000 0.009261500000 -0.003771000000
v -0.031250000000 0.009261500000 -0.003771000000
v -0.043750000000 0.008854500000 -0.004647000000
v -0.031250000000 0.008854500000 -0.004647000000
v -0.043750000000 0.008364500000 -0.005480000000
v -0.031250000000 0.008364500000 -0.005480000000
v -0.043750000000 0.007796500000 -0.006262000000
v -0.031250000000 0.007796500000 -0.006262000000
v -0.043750000000 0.007155500000 -0.006985000000
v -0.031250000000 0.007155500000 -0.006985000000
v -0.043750000000 0.006448500000 -0.007643000000
v -0.031250000000 0.006448500000 -0.007643000000
v -0.043750000000 0.005680500000 -0.008230000000
v -0.031250000000 0.005680500000 -0.008230000000
v -0.043750000000 0.004859500000 -0.008740000000
v -0.031250000000 0.004859500000 -0.008740000000
v -0.043750000000 0.003993500000 -0.009168000000
v -0.031250000000 0.003993500000 -0.009168000000
v -0.043750000000 0.003090500000 -0.009511000000
v -0.031250000000 0.003090500000 -0.009511000000
v -0.043750000000 0.002157500000 -0.009764000000
v -0.031250000000 0.002157500000 -0.009764000000
v -0.043750000000 0.001205500000 -0.009927000000
v -0.031250000000 0.001205500000 -0.009927000000
v -0.043750000000 0.000241500000 -0.009997000000
v -0.031250000000 0.000241500000 -0.009997000000
v -0.043750000000 -0.000724500000 -0.009974000000
v -0.031250000000 -0.000724500000 -0.009974000000
v -0.043750000000 -0.001683500000 -0.009857000000
v -0.031250000000 -0.001683500000 -0.009857000000
v -0.043750000000 -0.002627500000 -0.009649000000
v -0.031250000000 -0.002627500000 -0.009649000000
v -0.043750000000 -0.003546500000 -0.009350000000
v -0.031250000000 -0.003546500000 -0.009350000000
v -0.043750000000 -0.004431500000 -0.008964000000
v -0.031250000000 -0.004431500000 -0.008964000000
v -0.043750000000 -0.005276500000 -0.008495000000
v -0.031250000000 -0.005276500000 -0.008495000000
v -0.043750000000 -0.006071500000 -0.007946000000
v -0.031250000000 -0.006071500000 -0.007946000000
v -0.043750000000 -0.006810500000 -0.007323000000
v -0.031250000000 -0.006810500000 -0.007323000000
v -0.043750000000 -0.007485500000 -0.006631000000
v -0.031250000000 -0.007485500000 -0.006631000000
v -0.043750000000 -0.008090500000 -0.005878000000
v -0.031250000000 -0.008090500000 -0.005878000000
v -0.043750000000 -0.008619500000 -0.005070000000
v -0.031250000000 -0.008619500000 -0.005070000000
v -0.043750000000 -0.009068500000 -0.004214000000
v -0.031250000000 -0.009068500000 -0.004214000000
v -0.043750000000 -0.009433500000 -0.003319000000
v -0.031250000000 -0.009433500000 -0.003319000000
v -0.043750000000 -0.009709500000 -0.002393000000
v -0.031250000000 -0.009709500000 -0.002393000000
v -0.043750000000 -0.009895500000 -0.001445000000
v -0.031250000000 -0.009895500000 -0.001445000000
v -0.043750000000 -0.009988500000 -0.000483000000
v -0.031250000000 -0.009988500000 -0.000483000000
v -0.043750000000 -0.009988500000 0.000483000000
v -0.031250000000 -0.009988500000 0.000483000000
v -0.043750000000 -0.009895500000 0.001445000000
v -0.031250000000 -0.009895500000 0.001445000000
v -0.043750000000 -0.009709500000 0.002393000000
v -0.031250000000 -0.009709500000 0.002393000000
v -0.043750000000 -0.009433500000 0.003319000000
v -0.031250000000 -0.009433500000 0.003319000000
v -0.043750000000 -0.009068500000 0.004214000000
v -0.031250000000 -0.009068500000 0.004214000000
v -0.043750000000 -0.008619500000 0.005070000000
v -0.031250000000 -0.008619500000 0.005070000000
v -0.043750000000 -0.008090500000 0.005878000000
v -0.031250000000 -0.008090500000 0.005878000000
v -0.043750000000 -0.007485500000 0.006631000000
v -0.031250000000 -0.007485500000 0.006631000000
v -0.043750000000 -0.006810500000 0.007323000000
v -0.031250000000 -0.006810500000 0.007323000000
v -0.043750000000 -0.006071500000 0.007946000000
v -0.031250000000 -0.006071500000 0.007946000000
v -0.043750000000 -0.005276500000 0.008495000000
v -0.031250000000 -0.005276500000 0.008495000000
v -0.043750000000 -0.004431500000 0.008964000000
v -0.031250000000 -0.004431500000 0.008964000000
v -0.043750000000 -0.003546500000 0.009350000000
v -0.031250000000 -0.003546500000 0.009350000000
v -0.043750000000 -0.002627500000 0.009649000000
v -0.031250000000 -0.002627500000 0.009649000000
v -0.043750000000 -0.001683500000 0.009857000000
v -0.031250000000 -0.001683500000 0.009857000000
v -0.043750000000 -0.000724500000 0.009974000000
v -0.031250000000 -0.000724500000 0.009974000000
v -0.043750000000 0.000241500000 0.009997000000
v -0.031250000000 0.000241500000 0.009997000000
v -0.043750000000 0.001205500000 0.009927000000
v -0.031250000000 0.001205500000 0.009927000000
v -0.043750000000 0.002157500000 0.009764000000
v -0.031250000000 0.002157500000 0.009764000000
v -0.043750000000 0.003090500000 0.009511000000
v -0.031250000000 0.003090500000 0.009511000000
v -0.043750000000 0.003993500000 0.009168000000
v -0.031250000000 0.003993500000 0.009168000000
v -0.043750000000 0.004859500000 0.008740000000
v -0.031250000000 0.004859500000 0.008740000000
v -0.043750000000 0.005680500000 0.008230000000
v -0.031250000000 0.005680500000 0.008230000000
v -0.043750000000 0.006448500000 0.007643000000
v -0.031250000000 0.006448500000 0.007643000000
v -0.043750000000 0.007155500000 0.006985000000
v -0.031250000000 0.007155500000 0.006985000000
v -0.043750000000 0.007796500000 0.006262000000
v -0.031250000000 0.007796500000 0.006262000000
v -0.043750000000 0.008364500000 0.005480000000
v -0.031250000000 0.008364500000 0.005480000000
v -0.043750000000 0.008854500000 0.004647000000
v -0.031250000000 0.008854500000 0.004647000000
v -0.043750000000 0.009261500000 0.003771000000
v -0.031250000000 0.009261500000 0.003771000000
v -0.043750000000 0.009582500000 0.002859000000
v -0.031250000000 0.009582500000 0.002859000000
v -0.043750000000 0.009813500000 0.001921000000
v -0.031250000000 0.009813500000 0.001921000000
v -0.018750000000 0.009953500000 -0.000965000000
v -0.018750000000 0.010000500000 -0.000000000000
v -0.018750000000 0.009953500000 0.000965000000
v -0.018750000000 0.009813500000 0.001921000000
v -0.018750000000 0.009582500000 0.002859000000
v -0.018750000000 0.009261500000 0.003771000000
v -0.018750000000 0.008854500000 0.004647000000
v -0.018750000000 0.008364500000 0.005480000000
v -0.018750000000 0.007796500000 0.006262000000
v -0.018750000000 0.007155500000 0.006985000000
v -0.018750000000 0.006448500000 0.007643000000
v -0.018750000000 0.005680500000 0.008230000000
v -0.018750000000 0.004859500000 0.008740000000
v -0.018750000000 0.003993500000 0.009168000000
v -0.018750000000 0.003090500000 0.009511000000
v -0.018750000000 0.002157500000 0.009764000000
v -0.018750000000 0.001205500000 0.009927000000
v -0.018750000000 0.000241500000 0.009997000000
v -0.018750000000 -0.000724500000 0.009974000000
v -0.018750000000 -0.001683500000 0.009857000000
v -0.018750000000 -0.002627500000 0.009649000000
v -0.018750000000 -0.003546500000 0.009350000000
v -0.018750000000 -0.004431500000 0.008964000000
v -0.018750000000 -0.005276500000 0.008495000000
v -0.018750000000 -0.006071500000 0.007946000000
v -0.018750000000 -0.006810500000 0.007323000000
v -0.018750000000 -0.007485500000 0.006631000000
v -0.018750000000 -0.008090500000 0.005878000000
v -0.018750000000 -0.008619500000 0.005070000000
v -0.018750000000 -0.009068500000 0.004214000000
v -0.018750000000 -0.009433500000 0.003319000000
v -0.018750000000 -0.009709500000 0.002393000000
v -0.018750000000 -0.009895500000 0.001445000000
v -0.018750000000 -0.009988500000 0.000483000000
v -0.018750000000 -0.009988500000 -0.000483000000
v -0.018750000000 -0.009895500000 -0.001445000000
v -0.018750000000 -0.009709500000 -0.002393000000
v -0.018750000000 -0.009433500000 -0.003319000000
v -0.018750000000 -0.009068500000 -0.004214000000
v -0.018750000000 -0.008619500000 -0.005070000000
v -0.018750000000 -0.008090500000 -0.005878000000
v -0.018750000000 -0.007485500000 -0.006631000000
v -0.018750000000 -0.006810500000 -0.007323000000
v -0.018750000000 -0.006071500000 -0.007946000000
v -0.018750000000 -0.005276500000 -0.008495000000
v -0.018750000000 -0.004431500000 -0.008964000000
v -0.018750000000 -0.003546500000 -0.009350000000
v -0.018750000000 -0.002627500000 -0.009649000000
v -0.018750000000 -0.001683500000 -0.009857000000
v -0.018750000000 -0.000724500000 -0.009974000000
v -0.018750000000 0.000241500000 -0.009997000000
v -0.018750000000 0.001205500000 -0.009927000000
v -0.018750000000 0.002157500000 -0.009764000000
v -0.018750000000 0.003090500000 -0.009511000000
v -0.018750000000 0.003993500000 -0.009168000000
v -0.018750000000 0.004859500000 -0.008740000000
v -0.018750000000 0.005680500000 -0.008230000000
v -0.018750000000 0.006448500000 -0.007643000000
v -0.018750000000 0.007155500000 -0.006985000000
v -0.018750000000 0.007796500000 -0.006262000000
v -0.018750000000 0.008364500000 -0.005480000000
v -0.018750000000 0.008854500000 -0.004647000000
v -0.018750000000 0.009261500000 -0.003771000000
v -0.018750000000 0.009582500000 -0.002859000000
v -0.018750000000 0.009813500000 -0.001921000000
f 1 2 3
f 3 2 4
f 3 4 5
f 5 4 6
f 5 6 7
f 7 6 8
f 7 8 9
f 9 8 10
f 9 10 11
f 11 10 12
f 11 12 13
f 13 12 14
f 13 14 15
f 15 14 16
f 15 16 17
f 17 16 18
f 17 18 19
f 19 18 20
f 19 20 21
f 21 20 22
f 21 22 23
f 23 22 24
f 23 24 25
f 25 24 26
f 25 26 27
f 27 26 28
f 27 28 29
f 29 28 30
f 29 30 31
f 31 30 32
f 31 32 33
f 33 32 34
f 33 34 35
f 35 34 36
f 35 36 37
f 37 36 38
f 37 38 39
f 39 38 40
f 39 40 41
f 41 40 42
f 41 42 43
f 43 42 44
f 43 44 45
f 45 44 46
f 45 46 47
f 47 46 48
f 47 48 49
f 49 48 50
f 49 50 51
f 51 50 52
f 51 52 53
f 53 52 54
f 53 54 55
f 55 54 56
f 55 56 57
f 57 56 58
f 57 58 59
f 59 58 60
f 59 60 61
f 61 60 62
f 61 62 63
f 63 62 64
f 63 64 65
f 65 64 66
f 65 66 67
f 67 66 68
f 67 68 69
f 69 68 70
f 69 70 71
f 71 70 72
f 71 72 73
f 73 72 74
f 73 74 75
f 75 74 76
f 75 76 77
f 77 76 78
f 77 78 79
f 79 78 80
f 79 80 81
f 81 80 82
f 81 82 83
f 83 82 84
f 83 84 85
f 85 84 86
f 85 86 87
f 87 86 88
f 87 88 89
f 89 88 90
f 89 90 91
f 91 90 92
f 91 92 93
f 93 92 94
f 93 94 95
f 95 94 96
f 95 96 97
f 97 96 98
f 97 98 99
f 99 98 100
f 99 100 101
f 101 100 102
f 101 102 103
f 103 102 104
f 103 104 105
f 105 104 106
f 105 106 107
f 107 106 108
f 107 108 109
f 109 108 110
f 109 110 111
f 111 110 112
f 111 112 113
f 113 112 114
f 113 114 115
f 115 114 116
f 115 116 117
f 117 116 118
f 117 118 119
f 119 118 120
f 119 120 121
f 121 120 122
f 121 122 123
f 123 122 124
f 123 124 125
f 125 124 126
f 125 126 127
f 127 126 128
f 127 128 129
f 129 128 130
f 129 130 1
f 1 130 2
f 131 6 132
f 132 6 4
f 132 4 133
f 133 4 2
f 133 2 134
f 134 2 130
f 134 130 135
f 135 130 128
f 135 128 136
f 136 128 126
f 136 126 137
f 137 126 124
f 137 124 138
f 138 124 122
f 138 122 139
f 139 122 120
f 139 120 140
f 140 120 118
f 140 118 141
f 141 118 116
f 141 116 142
f 142 116 114
f 142 114 143
f 143 114 112
f 143 112 144
f 144 112 110
f 144 110 145
f 145 110 108
f 145 108 146
f 146 108 106
f 146 106 147
f 147 106 104
f 147 104 148
f 148 104 102
f 148 102 149
f 149 102 100
f 149 100 150
f 150 100 98
f 150 98 151
f 151 98 96
f 151 96 152
f 152 96 94
f 152 94 153
f 153 94 92
f 153 92 154
f 154 92 90
f 154 90 155
f 155 90 88
f 155 88 156
f 156 88 86
f 156 86 157
f 157 86 84
f 157 84 158
f 158 84 82
f 158 82 159
f 159 82 80
f 159 80 160
f 160 80 78
f 160 78 161
f 161 78 76
f 161 76 162
f 162 76 74
f 162 74 163
f 163 74 72
f 163 72 164
f 164 72 70
f 164 70 165
f 165 70 68
f 165 68 166
f 166 68 66
f 166 66 167
f 167 66 64
f 167 64 168
f 168 64 62
f 168 62 169
f 169 62 60
f 169 60 170
f 170 60 58
f 170 58 171
f 171 58 56
f 171 56 172
f 172 56 54
f 172 54 173
f 173 54 52
f 173 52 174
f 174 52 50
f 174 50 175
f 175 50 48
f 175 48 176
f 176 48 46
f 176 46 177
f 177 46 44
f 177 44 178
f 178 44 42
f 178 42 179
f 179 42 40
f 179 40 180
f 180 40 38
f 180 38 181
f 181 38 36
f 181 36 182
f 182 36 34
f 182 34 183
f 183 34 32
f 183 32 184
f 184 32 30
f 184 30 185
f 185 30 28
f 185 28 186
f 186 28 26
f 186 26 187
f 187 26 24
f 187 24 188
f 188 24 22
f 188 22 189
f 189 22 20
f 189 20 190
f 190 20 18
f 190 18 191
f 191 18 16
f 191 16 192
f 192 16 14
f 192 14 193
f 193 14 12
f 193 12 194
f 194 12 10
f 194 10 195
f 195 10 8
f 195 8 131
f 131 8 6
f 1 3 67
f 67 3 5
f 67 5 65
f 65 5 7
f 65 7 63
f 63 7 9
f 63 9 61
f 61 9 11
f 61 11 59
f 59 11 13
f 59 13 57
f 57 13 15
f 57 15 55
f 55 15 17
f 55 17 53
f 53 17 19
f 53 19 51
f 51 19 21
f 51 21 49
f 49 21 23
f 49 23 47
f 47 23 25
f 47 25 45
f 45 25 27
f 45 27 43
f 43 27 29
f 43 29 41
f 41 29 31
f 41 31 39
f 39 31 33
f 39 33 37
f 37 33 35
f 69 73 67
f 67 73 75
f 67 75 77
f 69 71 73
f 77 79 67
f 67 79 81
f 67 81 83
f 83 85 67
f 67 85 87
f 67 87 89
f 89 91 67
f 67 91 93
f 67 93 95
f 95 97 67
f 67 97 99
f 67 99 101
f 101 103 67
f 67 103 105
f 67 105 107
f 107 109 67
f 67 109 111
f 67 111 113
f 113 115 67
f 67 115 117
f 67 117 119
f 119 121 67
f 67 121 123
f 67 123 125
f 125 127 67
f 67 127 129
f 67 129 1
f 194 195 131
f 131 132 133
f 133 134 135
f 135 136 137
f 137 138 139
f 139 140 141
f 141 142 143
f 143 144 145
f 145 146 147
f 147 148 149
f 149 150 151
f 151 152 153
f 153 154 155
f 155 156 157
f 157 158 159
f 159 160 161
f 161 162 163
f 163 164 165
f 165 166 167
f 167 168 169
f 169 170 171
f 171 172 173
f 173 174 175
f 175 176 177
f 177 178 179
f 179 180 181
f 181 182 183
f 183 184 185
f 185 186 187
f 187 188 189
f 189 190 191
f 191 192 193
f 193 194 131
f 131 133 135
f 135 137 139
f 139 141 143
f 143 145 147
f 147 149 151
f 151 153 155
f 155 157 159
f 159 161 163
f 163 165 167
f 167 169 171
f 171 173 175
f 175 177 179
f 179 181 183
f 183 185 187
f 187 189 191
f 191 193 131
f 131 135 139
f 139 143 147
f 147 151 155
f 155 159 163
f 163 167 171
f 171 175 179
f 179 183 187
f 187 191 131
f 131 139 147
f 147 155 163
f 163 171 179
f 179 187 131
f 131 147 163
f 163 179 131

